<?xml version="1.0" standalone="no"?>
<!DOCTYPE svg PUBLIC "-//W3C//DTD SVG 1.1//EN" "http://www.w3.org/Graphics/SVG/1.1/DTD/svg11.dtd" >
<svg xmlns="http://www.w3.org/2000/svg">
<metadata></metadata>
<defs>
<font id="freesetbookcbold" horiz-adv-x="1251" >
<font-face units-per-em="2048" ascent="1638" descent="-410" />
<missing-glyph horiz-adv-x="477" />
<glyph horiz-adv-x="0" />
<glyph unicode="&#xd;" horiz-adv-x="2048" />
<glyph unicode=" "  horiz-adv-x="477" />
<glyph unicode="&#x09;" horiz-adv-x="477" />
<glyph unicode="&#xa0;" horiz-adv-x="477" />
<glyph unicode="!" horiz-adv-x="909" d="M264 1434h381l-53 -947h-275zM283 0v332h344v-332h-344z" />
<glyph unicode="&#x22;" d="M291 877v557h270v-557h-270zM690 877v557h271v-557h-271z" />
<glyph unicode="#" horiz-adv-x="1253" d="M119 385v221h203l30 225h-172v224h203l53 379h217l-53 -379h178l51 379h215l-51 -379h142v-224h-172l-31 -225h141v-221h-172l-53 -385h-215l53 385h-178l-53 -385h-217l53 385h-172zM539 606h178l31 225h-179z" />
<glyph unicode="$" horiz-adv-x="1253" d="M78 1028q3 220 147 322q138 102 346 108v174h123v-174q105 0 203 -14q107 -15 176 -49l-24 -277q-161 79 -355 82v-311q93 -20 189 -49q88 -31 151 -82q70 -52 107 -131q37 -81 37 -207q-3 -223 -160 -332q-149 -110 -350 -113v-176h-123v176q-87 0 -223 17 q-117 12 -191 37l27 290q192 -76 387 -73v348q-185 28 -320 133q-144 105 -147 301zM410 1061q0 -69 51 -103q44 -36 110 -45v287q-67 -3 -114 -41q-47 -41 -47 -98zM668 246q175 9 178 178q-3 77 -55 111q-48 30 -123 40v-329z" />
<glyph unicode="%" horiz-adv-x="2048" d="M98 1034q-3 180 80 301q82 120 279 123q201 -3 280 -123q78 -122 78 -301q0 -189 -78 -305q-78 -118 -280 -121q-198 3 -279 121q-83 115 -80 305zM356 1034q-2 -71 15 -160q15 -78 86 -81q73 3 88 81q15 76 12 160q3 83 -12 160t-88 80q-71 -3 -86 -80q-18 -90 -15 -160 zM518 -45l782 1524h224l-781 -1524h-225zM1233 401q-3 180 80 301q83 120 278 123q202 -3 281 -123q78 -122 78 -301q0 -189 -78 -305q-78 -118 -281 -121q-197 3 -278 121q-83 115 -80 305zM1491 401q-3 -74 14 -159q15 -79 86 -82q73 3 88 82q16 81 13 159q3 79 -13 160 q-15 77 -88 80q-71 -3 -86 -80q-17 -85 -14 -160z" />
<glyph unicode="&#x26;" horiz-adv-x="1593" d="M90 412q0 151 76 239q73 91 205 150q-172 132 -172 315q0 97 45 162q39 63 108 104q143 76 322 76q193 3 342 -76q150 -80 153 -276q0 -68 -24 -121q-23 -45 -72 -94q-43 -41 -96 -78q-25 -17 -115 -70q137 -120 246 -227q52 58 72 123q19 57 22 135h332 q-15 -281 -219 -491l254 -283h-408q-46 66 -86 109q-97 -78 -209 -105q-126 -29 -235 -29q-213 0 -371 107q-167 108 -170 330zM438 420q3 -95 72 -146q68 -53 158 -53q116 0 217 78q-136 153 -318 317q-61 -28 -94 -73q-35 -47 -35 -123zM526 1098q3 -65 49 -111 q45 -52 89 -84q9 5 59 35q27 18 55 43q57 45 60 117q0 67 -45 96q-48 31 -115 31q-66 0 -107 -35q-45 -33 -45 -92z" />
<glyph unicode="'" horiz-adv-x="681" d="M207 877v557h270v-557h-270z" />
<glyph unicode="(" horiz-adv-x="796" d="M141 633q9 507 326 919h301q-289 -418 -295 -919q9 -497 281 -920h-291q-319 411 -322 920z" />
<glyph unicode=")" horiz-adv-x="796" d="M29 -287q286 423 295 920q-9 499 -295 919h301q319 -404 325 -919q-9 -510 -325 -920h-301z" />
<glyph unicode="*" d="M197 1032l77 238l273 -135l-43 299h250l-41 -295l266 131l76 -240l-295 -53l209 -211l-207 -150l-137 265l-148 -263l-201 146l211 211z" />
<glyph unicode="+" horiz-adv-x="1228" d="M96 389v258h389v389h258v-389h390v-258h-390v-389h-258v389h-389z" />
<glyph unicode="," horiz-adv-x="763" d="M4 -223l137 555h344l-200 -555h-281z" />
<glyph unicode="-" horiz-adv-x="681" d="M63 418v270h555v-270h-555z" />
<glyph unicode="." horiz-adv-x="626" d="M141 0v332h344v-332h-344z" />
<glyph unicode="/" horiz-adv-x="827" d="M-43 -25l397 1483h258l-397 -1483h-258z" />
<glyph unicode="0" horiz-adv-x="1253" d="M74 717q-6 298 100 512q60 105 170 168q110 58 285 61q176 -3 289 -61q109 -60 167 -168q60 -107 80 -238q19 -139 19 -274q0 -132 -19 -271q-21 -129 -80 -239q-112 -226 -456 -232q-344 6 -455 232q-57 104 -78 239q-22 138 -22 271zM442 717q0 -72 7 -168 q6 -88 24 -158q7 -27 25 -63q13 -29 30 -49q37 -46 101 -46t104 46q22 26 35 49q10 26 20 63q30 162 27 326q3 165 -27 330q-11 44 -20 63q-13 23 -35 49q-41 41 -104 41t-101 -41q-17 -20 -30 -49q-16 -29 -25 -63q-6 -27 -14 -74q-8 -55 -10 -82q-7 -100 -7 -174z" />
<glyph unicode="1" horiz-adv-x="1253" d="M133 1118l485 316h336v-1434h-381v1053l-270 -195z" />
<glyph unicode="2" horiz-adv-x="1253" d="M86 0v272q242 206 424 385q86 92 147 181q53 83 56 155q0 96 -58 142q-59 41 -145 41q-209 -6 -375 -99l-14 297q160 58 258 72q105 12 166 12q245 0 395 -102q151 -103 154 -318q-3 -111 -47 -207q-45 -100 -119 -192q-151 -182 -271 -279l-102 -90h565v-270h-1034z" />
<glyph unicode="3" horiz-adv-x="1253" d="M86 25l18 301q66 -38 162 -54q83 -14 193 -14q94 -3 188 37q50 22 74 59q27 34 27 88t-27 88q-27 35 -68 50q-43 19 -86 22q-62 4 -80 4q-69 0 -159 -4v254q102 -7 164 -4q30 0 75 10q42 9 76 27q79 39 82 121q0 55 -20 88q-21 30 -60 49q-82 29 -166 29q-201 0 -332 -58 l-18 281q189 59 416 59q108 0 203 -14q97 -19 178 -64q83 -44 131 -118q46 -76 49 -195q-6 -250 -262 -315v-4q278 -55 284 -326q-6 -259 -206 -354q-86 -48 -201 -70q-122 -23 -217 -23q-250 0 -418 50z" />
<glyph unicode="4" horiz-adv-x="1253" d="M16 272v306l574 856h422v-902h202v-260h-202v-272h-357v272h-639zM287 532h393v607h-4z" />
<glyph unicode="5" horiz-adv-x="1253" d="M139 27l6 309q170 -78 349 -78q54 0 106 12q46 8 92 35q42 28 66 74q24 44 24 110q0 64 -26 103q-25 38 -74 63q-98 43 -217 43q-160 0 -311 -34l10 770h932v-258h-604v-240q68 8 112 8q227 0 383 -102q161 -106 164 -340q-3 -293 -193 -412q-189 -118 -436 -115 q-209 3 -383 52z" />
<glyph unicode="6" horiz-adv-x="1253" d="M84 655q-3 338 139 568q145 232 492 235q213 0 370 -65l-22 -281q-46 34 -119 55q-76 21 -182 21q-188 -3 -260 -115q-74 -118 -74 -307h4q100 145 309 145q202 -3 314 -127q111 -123 114 -323q-3 -205 -149 -342q-147 -141 -387 -144q-298 3 -426 205q-126 197 -123 475 zM444 442q0 -91 50 -153q47 -65 137 -68q90 3 137 62q45 57 45 143q0 92 -41 160q-20 33 -55 51q-37 16 -86 16q-94 -3 -139 -63q-48 -63 -48 -148z" />
<glyph unicode="7" horiz-adv-x="1253" d="M102 1163v271h1028v-310l-512 -1124h-409l532 1163h-639z" />
<glyph unicode="8" horiz-adv-x="1253" d="M68 385q3 157 86 240q79 82 196 112v-2v4q-101 34 -172 117t-74 191q3 228 164 321q156 90 373 90q218 0 352 -88q137 -88 140 -278q-3 -134 -70 -213q-30 -41 -74 -68q-48 -33 -92 -49v-4q125 -36 205 -113q81 -78 84 -239q0 -120 -45 -197q-45 -79 -123 -133 q-162 -101 -393 -101q-237 0 -394 95q-160 92 -163 315zM436 414q0 -81 58 -127q54 -54 127 -54q83 0 141 52q52 46 55 135q0 50 -18 84t-51 57q-70 48 -146 66q-70 -27 -117 -80q-49 -52 -49 -133zM449 1044q0 -81 57 -120q58 -45 121 -70q79 45 121 90q40 46 40 117 q-3 79 -53 115t-119 36q-71 0 -116 -45q-51 -45 -51 -123z" />
<glyph unicode="9" horiz-adv-x="1253" d="M84 973q3 207 152 344q144 138 385 141q302 -3 428 -203q123 -197 120 -477q3 -331 -137 -565q-142 -232 -493 -238q-211 0 -371 66l22 281q95 -73 302 -76q189 3 262 119q74 115 71 303h-4q-100 -146 -309 -146q-198 3 -311 131q-114 126 -117 320zM440 1008 q-3 -92 43 -156q43 -69 140 -72q96 3 141 66q45 60 45 145q0 96 -45 158q-48 60 -141 63q-92 -3 -136 -59q-47 -59 -47 -145z" />
<glyph unicode=":" horiz-adv-x="626" d="M141 0v332h344v-332h-344zM141 735v332h344v-332h-344z" />
<glyph unicode=";" horiz-adv-x="763" d="M4 -223l137 555h344l-200 -555h-281zM141 735v332h344v-332h-344z" />
<glyph unicode="&#x3c;" horiz-adv-x="1228" d="M96 410v217l1037 426v-250l-699 -285l699 -285v-249z" />
<glyph unicode="=" horiz-adv-x="1228" d="M96 154v258h1037v-258h-1037zM96 625v258h1037v-258h-1037z" />
<glyph unicode="&#x3e;" horiz-adv-x="1228" d="M96 -16v249l699 285l-699 285v250l1037 -426v-217z" />
<glyph unicode="?" horiz-adv-x="1138" d="M133 1399q213 59 430 59q180 3 334 -74q157 -80 160 -270q-3 -110 -47 -176q-43 -71 -111 -139q-57 -60 -113 -135q-50 -71 -63 -177h-299q3 99 43 175q47 85 90 133q37 43 90 120q38 55 41 125q0 40 -18 70q-21 27 -56 45q-67 33 -151 33q-173 0 -322 -76zM401 0v332 h344v-332h-344z" />
<glyph unicode="@" horiz-adv-x="1638" d="M76 717q3 326 221 532q212 206 559 209q295 -3 496 -160q208 -161 211 -440q-3 -168 -64 -278q-60 -112 -153 -177q-89 -65 -175 -92q-82 -26 -131 -26q-43 0 -69 26q-32 26 -35 76h-4q-45 -49 -90 -72q-52 -30 -117 -30q-133 0 -219 114q-93 106 -96 283q0 167 108 287 q106 124 281 127q154 3 245 -119l19 98h192l-69 -430q-21 -79 -21 -113q-3 -38 27 -38q61 0 117 71q28 44 41 94q16 59 16 136q12 461 -526 467q-243 -3 -385 -154q-143 -152 -146 -395q3 -262 156 -400q150 -141 399 -141q258 3 391 109h209q-216 -303 -596 -306 q-342 3 -563 209q-226 203 -229 533zM631 680q0 -85 45 -139q43 -58 127 -58q87 0 141 66q49 61 49 158q0 88 -45 139t-125 51q-91 -3 -139 -66q-53 -65 -53 -151z" />
<glyph unicode="A" horiz-adv-x="1519" d="M-20 0l542 1434h467l551 -1434h-418l-106 305h-537l-112 -305h-387zM567 578h359l-170 561h-4z" />
<glyph unicode="B" horiz-adv-x="1376" d="M133 0v1434h658q241 0 364 -115q100 -93 100 -254q0 -120 -59 -201q-34 -46 -85.5 -79.5t-106.5 -49.5v-4q39 -6 75 -17.5t76.5 -36t69.5 -58.5t48 -88.5t19 -122.5q0 -203 -153 -312q-136 -96 -404 -96h-602zM514 270h129q142 0 205 43q63 42 63 123q0 106 -90 146 q-65 26 -190 26h-117v-338zM514 866h107q136 0 194 41q59 40 59 111q0 65 -40 100q-52 45 -187 45h-133v-297z" />
<glyph unicode="C" horiz-adv-x="1366" d="M80 715q0 182 65.5 329t176.5 240q102 85 251 129.5t326 44.5q199 0 424 -74l-31 -309q-185 101 -370 101q-197 0 -320 -123q-58 -58 -93.5 -147t-35.5 -195q0 -101 34.5 -188t94.5 -144q61 -58 154 -89.5t194 -31.5q173 0 357 74l18 -299q-218 -58 -403 -58 q-213 0 -376.5 56.5t-264 157.5t-151 233.5t-50.5 292.5z" />
<glyph unicode="D" horiz-adv-x="1593" d="M133 0v1434h520q75 0 136.5 -3.5t142.5 -16t146.5 -34.5t134.5 -62.5t122 -96.5q51 -53 85 -115t50.5 -129t22.5 -126t6 -128q0 -71 -7.5 -132.5t-27 -134.5t-63 -142t-107.5 -126q-213 -188 -641 -188h-520zM514 283h148q103 0 189.5 26.5t154.5 100.5q100 109 100 307 q0 215 -121 327q-115 107 -323 107h-148v-868z" />
<glyph unicode="E" horiz-adv-x="1261" d="M133 0v1434h1008v-271h-627v-297h592v-270h-592v-326h649v-270h-1030z" />
<glyph unicode="F" horiz-adv-x="1148" d="M133 0v1434h957v-271h-576v-315h551v-270h-551v-578h-381z" />
<glyph unicode="G" horiz-adv-x="1593" d="M80 727q0 378 278 573q127 90 275 124t332 34q268 0 450 -63l-31 -312q-164 93 -376 93q-240 0 -385 -119q-150 -126 -150 -346q0 -194 115 -314q63 -66 162.5 -102.5t201.5 -36.5q70 0 133 25v284h-223v271h592v-797q-268 -66 -522 -66q-371 0 -588 166q-53 41 -97 92.5 t-83.5 122.5t-61.5 166t-22 205z" />
<glyph unicode="H" horiz-adv-x="1478" d="M133 0v1434h381v-549h451v549h381v-1434h-381v614h-451v-614h-381z" />
<glyph unicode="I" horiz-adv-x="647" d="M133 0v1434h381v-1434h-381z" />
<glyph unicode="J" horiz-adv-x="909" d="M29 14v316q74 -35 172 -35q71 0 116 43q78 72 78 272v824h381v-938q0 -265 -125 -392q-57 -58 -146.5 -93.5t-205.5 -35.5q-95 0 -236 31z" />
<glyph unicode="K" horiz-adv-x="1478" d="M133 0v1434h381v-586h4l430 586h459l-528 -668l569 -766h-485l-445 651h-4v-651h-381z" />
<glyph unicode="L" horiz-adv-x="1138" d="M133 0v1434h381v-1151h590v-283h-971z" />
<glyph unicode="M" horiz-adv-x="2068" d="M133 0v1434h600l303 -953h4l318 953h577v-1434h-372l6 1102h-4l-365 -1102h-350l-348 1102h-4l8 -1102h-373z" />
<glyph unicode="N" horiz-adv-x="1581" d="M133 0v1434h485l484 -973h4l-6 973h348v-1434h-473l-500 979h-4l12 -979h-350z" />
<glyph unicode="O" horiz-adv-x="1593" d="M80 717q0 361 188 551t529 190q340 0 528 -190t188 -551t-188 -551q-189 -191 -528 -191q-340 0 -529 191q-188 190 -188 551zM473 717q0 -225 88 -342q84 -117 236 -117q151 0 235 117q88 117 88 342t-88 342q-84 117 -235 117q-152 0 -236 -117q-88 -117 -88 -342z" />
<glyph unicode="P" horiz-adv-x="1271" d="M133 0v1434h455q372 0 520 -144q121 -117 121 -327q0 -179 -107 -297q-150 -164 -460 -164h-148v-502h-381zM514 772h98q121 0 181 53q55 50 55 144q0 100 -68 151q-58 43 -168 43h-98v-391z" />
<glyph unicode="Q" horiz-adv-x="1593" d="M80 717q0 361 188 551t529 190q340 0 528 -190t188 -551q0 -266 -106 -443q-49 -82 -111.5 -136.5t-146.5 -90.5l338 -317h-430l-240 245h-14q-347 0 -535 191q-188 192 -188 551zM473 717q0 -225 88 -342q84 -117 236 -117q151 0 235 117q88 117 88 342t-88 342 q-84 117 -235 117q-152 0 -236 -117q-88 -117 -88 -342z" />
<glyph unicode="R" horiz-adv-x="1376" d="M133 0v1434h680q217 0 340 -99q121 -98 121 -272q0 -142 -72 -232q-32 -42 -85.5 -74.5t-117.5 -45.5v-4q51 -11 91 -58q30 -36 73 -153l178 -496h-397l-82 258q-36 116 -63.5 174t-59.5 86q-53 49 -145 49h-80v-567h-381zM514 838h100q165 0 222 41q57 42 57 122 q0 101 -90 136q-67 26 -189 26h-100v-325z" />
<glyph unicode="S" d="M90 1014q0 252 229 368q153 76 388 76q201 0 374 -53l-24 -295q-141 66 -318 66q-124 0 -182 -27q-74 -32 -74 -109q0 -36 21 -61q22 -28 73 -50t146 -48l22 -7q70 -18 152 -50.5t133 -73.5q129 -104 129 -301q0 -235 -164 -357q-158 -117 -465 -117q-215 0 -426 62 l33 315q182 -94 393 -94q136 0 189 41q47 37 47 100q0 65 -55 107q-20 15 -50 29t-48 20.5t-72 23t-70 21.5l-59 18q-94 29 -172 85t-115 137q-35 78 -35 174z" />
<glyph unicode="T" horiz-adv-x="1138" d="M27 1151v283h1085v-283h-352v-1151h-381v1151h-352z" />
<glyph unicode="U" horiz-adv-x="1511" d="M129 545v889h381v-826q0 -149 41 -231q59 -119 205 -119t205 119q40 80 40 231v826h381v-889q0 -247 -129 -389q-162 -181 -497 -181q-336 0 -498 181q-129 142 -129 389z" />
<glyph unicode="V" horiz-adv-x="1396" d="M-20 1434h405l317 -1127h5l319 1127h391l-487 -1434h-471z" />
<glyph unicode="W" horiz-adv-x="2048" d="M16 1434h390l184 -1102h4l192 1102h484l200 -1102h5l186 1102h371l-320 -1434h-489l-203 1102h-4l-189 -1102h-493z" />
<glyph unicode="X" horiz-adv-x="1449" d="M6 0l463 754l-414 680h445l239 -473l246 473h418l-418 -680l459 -754h-455l-276 528l-275 -528h-432z" />
<glyph unicode="Y" horiz-adv-x="1388" d="M-23 1434h439l280 -576l277 576h438l-524 -893v-541h-381v541z" />
<glyph unicode="Z" horiz-adv-x="1269" d="M72 0v303l680 848h-662v283h1096v-304l-701 -847h705v-283h-1118z" />
<glyph unicode="[" horiz-adv-x="796" d="M180 -287v1839h541v-233h-234v-1372h234v-234h-541z" />
<glyph unicode="\" horiz-adv-x="569" d="M-43 1458h258l397 -1483h-258z" />
<glyph unicode="]" horiz-adv-x="796" d="M76 -53h233v1372h-233v233h540v-1839h-540v234z" />
<glyph unicode="^" horiz-adv-x="1478" d="M143 684l357 750h229l356 -750h-249l-222 467l-221 -467h-250z" />
<glyph unicode="_" horiz-adv-x="1024" d="M0 -154h1024v-102h-1024v102z" />
<glyph unicode="`" horiz-adv-x="575" d="M-18 1493h383l139 -295h-258z" />
<glyph unicode="a" horiz-adv-x="1243" d="M63 307q0 33 6.5 67t23.5 78.5t56 85.5t95 70q131 66 370 66q82 0 172 -10v8q0 69 -47 116q-60 58 -200 58q-182 0 -336 -80l-6 250q187 76 419 76q236 0 367 -103q147 -116 147 -340v-397q0 -138 13 -252h-334l-4 168h-4q-42 -70 -96 -113q-98 -80 -242 -80 q-174 0 -283 84q-117 92 -117 248zM408 338q0 -50 41 -84q39 -33 108 -33q109 0 174 86q50 67 55 166q-57 8 -143 8q-124 0 -176 -35q-59 -40 -59 -108z" />
<glyph unicode="b" horiz-adv-x="1366" d="M106 0v1536h369v-606h4q134 162 355 162q207 0 337 -156q62 -74 97 -177t35 -216q0 -103 -27.5 -202t-81.5 -173q-138 -193 -373 -193q-76 0 -145 21.5t-130.5 71t-96.5 122.5h-5v-190h-338zM473 537q0 -118 64 -198.5t161 -80.5q40 0 77.5 15.5t71.5 47t54.5 87.5 t20.5 129q0 72 -21 127.5t-55 85.5t-71.5 44.5t-76.5 14.5q-94 0 -159.5 -75t-65.5 -197z" />
<glyph unicode="c" horiz-adv-x="1026" d="M63 532q0 129 55 250t181 205q159 105 399 105q156 0 281 -60l-27 -270q-98 59 -213 59q-118 0 -192 -61q-48 -40 -74.5 -100t-26.5 -128q0 -127 93 -210q85 -76 221 -76q110 0 219 51l8 -274q-153 -48 -293 -48q-173 0 -311 61.5t-215 166.5q-52 69 -78.5 157.5 t-26.5 171.5z" />
<glyph unicode="d" horiz-adv-x="1363" d="M61 543q0 232 132 393q68 83 150.5 119.5t186.5 36.5q225 0 355 -162h4v606h368v-1536h-337v190h-5q-35 -73 -96.5 -122.5t-130.5 -71t-145 -21.5q-235 0 -373 193q-54 74 -81.5 173t-27.5 202zM442 537q0 -73 20.5 -129t54.5 -87.5t71.5 -47t77.5 -15.5q97 0 161 80.5 t64 198.5q0 122 -65.5 197t-159.5 75q-39 0 -76.5 -14.5t-71.5 -44.5t-55 -85.5t-21 -127.5z" />
<glyph unicode="e" d="M63 539q0 44 6.5 89t23 104t54 118t91.5 106q156 136 399 136q259 0 399 -160q64 -73 101 -185.5t37 -252.5v-68h-738q7 -57 33 -95t53 -55q79 -55 234 -55q156 0 319 82v-260q-162 -68 -383 -68q-289 0 -456 154q-173 160 -173 410zM432 635h410v11q0 81 -54 153 q-51 59 -147 59q-93 0 -149 -61q-60 -67 -60 -162z" />
<glyph unicode="f" horiz-adv-x="909" d="M27 809v258h217v66q0 59 4 101.5t29 107t71 110.5q109 109 332 109q79 0 190 -19l13 -2l-23 -254q-51 17 -104 17q-72 0 -105 -35q-39 -41 -39 -135v-66h262v-258h-262v-809h-368v809h-217z" />
<glyph unicode="g" horiz-adv-x="1368" d="M63 551q0 259 142 410q127 131 325 131q134 0 230 -62q89 -56 147 -156h4v193h334v-942q0 -295 -139 -434q-148 -146 -473 -146q-237 0 -438 68l18 291q167 -88 360 -88q168 0 252 84q76 78 76 225v57h-4q-50 -78 -137 -127q-102 -55 -223 -55q-122 0 -209 45.5 t-140 108.5q-125 147 -125 397zM444 543q0 -114 58 -187q59 -73 151 -73q99 0 164 73q72 77 72 199q0 107 -58 174q-65 80 -172 80q-90 0 -147 -61q-68 -74 -68 -205z" />
<glyph unicode="h" horiz-adv-x="1366" d="M115 0v1536h368v-627h4q63 88 150 133q91 50 207 50q187 0 295 -111q112 -112 112 -315v-666h-368v516q0 170 -68 232q-38 36 -102 36q-117 0 -178 -92q-52 -83 -52 -241v-451h-368z" />
<glyph unicode="i" horiz-adv-x="684" d="M158 0v1067h368v-1067h-368zM158 1241v270h368v-270h-368z" />
<glyph unicode="j" horiz-adv-x="641" d="M-51 -436l8 237q30 -10 78 -10q76 0 102 62q21 49 21 147v1067h368v-1077q0 -189 -59 -293q-49 -86 -130.5 -119t-199.5 -33q-81 0 -188 19zM158 1241v270h368v-270h-368z" />
<glyph unicode="k" d="M115 0v1536h368v-918h4l308 449h403l-371 -489l402 -578h-447l-295 528h-4v-528h-368z" />
<glyph unicode="l" horiz-adv-x="598" d="M115 0v1536h368v-1536h-368z" />
<glyph unicode="m" horiz-adv-x="2048" d="M115 0v1067h336v-197h4q56 114 163 170q104 52 226 52q129 0 217 -60q78 -46 117 -145q125 205 393 205q179 0 272 -105q27 -30 45.5 -71t27 -71.5t13 -81.5t4.5 -68.5v-65.5v-629h-368v573q0 115 -47 168q-39 43 -107 43q-94 0 -151 -88q-52 -84 -52 -245v-451h-368v573 q0 115 -47 168q-39 43 -107 43q-94 0 -151 -88q-52 -84 -52 -245v-451h-368z" />
<glyph unicode="n" horiz-adv-x="1366" d="M115 0v1067h336v-197h4q55 115 168 172q98 50 221 50q189 0 293 -109q46 -46 80 -125.5t34 -191.5v-666h-368v516q0 168 -68 232q-38 36 -104 36q-100 0 -158 -65q-70 -80 -70 -268v-451h-368z" />
<glyph unicode="o" horiz-adv-x="1368" d="M63 532q0 273 197 429q166 131 424 131t424 -131q197 -156 197 -429q0 -272 -197 -428q-161 -129 -424 -129t-424 129q-197 156 -197 428zM444 532q0 -149 74 -231q64 -70 166 -70t166 70q74 82 74 231q0 150 -74 232q-64 70 -166 70t-166 -70q-74 -82 -74 -232z" />
<glyph unicode="p" horiz-adv-x="1376" d="M115 -430v1497h340v-193h4q55 109 172 168q97 50 219 50q93 0 171.5 -33t131 -87.5t89.5 -126.5t54 -149.5t17 -156.5q0 -226 -115 -379q-137 -185 -373 -185q-112 0 -196 43q-89 43 -142 132h-4v-580h-368zM483 530q0 -105 66 -194q65 -78 160 -78q104 0 165 84 q58 83 58 190q0 123 -60 199q-63 78 -163 78q-91 0 -154 -68q-72 -78 -72 -211z" />
<glyph unicode="q" horiz-adv-x="1374" d="M61 539q0 79 17 156.5t54 149.5t89.5 126.5t131 87.5t171.5 33q122 0 219 -50q117 -59 172 -168h5v193h340v-1497h-369v580h-4q-53 -89 -142 -132q-84 -43 -196 -43q-236 0 -373 185q-115 153 -115 379zM442 532q0 -107 58 -190q61 -84 166 -84q94 0 159 78q66 89 66 194 q0 133 -72 211q-63 68 -153 68q-101 0 -164 -78q-60 -76 -60 -199z" />
<glyph unicode="r" horiz-adv-x="909" d="M115 0v1067h336v-197h4q23 55 60 101t79 73q75 48 176 48q64 0 125 -13l-18 -307q-49 12 -105 12q-124 0 -192 -61q-97 -88 -97 -272v-451h-368z" />
<glyph unicode="s" horiz-adv-x="1024" d="M66 739q0 194 163 283q127 70 299 70q209 0 367 -62l-29 -256q-58 33 -114 47q-89 25 -172 25q-89 0 -127 -19q-43 -18 -43 -59q0 -19 12 -35q6 -8 15.5 -15t23.5 -13.5t25 -11t30 -9.5t29.5 -7.5t32 -7.5t28.5 -7l33 -9q120 -29 184 -67q135 -83 135 -254 q0 -170 -118 -260q-125 -97 -408 -97q-191 0 -358 52l20 268q81 -30 139 -45q120 -29 220 -29q73 0 108 25q31 23 31 59q0 42 -41 72q-30 21 -150 53l-53 14q-47 13 -75 22.5t-73 36t-75 62.5q-59 71 -59 174z" />
<glyph unicode="t" horiz-adv-x="909" d="M20 809v258h218v240l362 112v-352h258v-258h-258v-393q0 -111 35 -152q36 -43 113 -43q14 0 86 10l26 5l12 -240l-45 -6q-115 -15 -180 -15q-59 0 -104 4.5t-107 26.5t-106 62q-34 32 -55.5 69.5t-30 81.5t-11 75.5t-2.5 80.5v434h-211z" />
<glyph unicode="u" horiz-adv-x="1366" d="M115 401v666h368v-516q0 -168 68 -232q38 -36 104 -36q100 0 158 65q70 80 70 268v451h368v-1067h-336v197h-4q-55 -115 -168 -172q-98 -50 -221 -50q-189 0 -293 109q-46 46 -80 125.5t-34 191.5z" />
<glyph unicode="v" d="M20 1067h396l221 -760h4l223 760h367l-395 -1067h-420z" />
<glyph unicode="w" horiz-adv-x="1933" d="M18 1067h385l172 -768h5l184 768h442l180 -768h5l168 768h356l-326 -1067h-428l-180 772h-4l-203 -772h-428z" />
<glyph unicode="x" horiz-adv-x="1214" d="M0 0l362 543l-333 524h436l158 -319l165 319h404l-334 -520l356 -547h-444l-178 332l-176 -332h-416z" />
<glyph unicode="y" horiz-adv-x="1239" d="M16 1067h398l229 -696h4l219 696h369l-410 -1038q-44 -117 -71 -174q-74 -161 -172 -234q-63 -46 -128 -61t-159 -15q-81 0 -203 25l25 280q60 -22 133 -22q88 0 135 43q43 35 64 104z" />
<glyph unicode="z" horiz-adv-x="1050" d="M61 0v295l488 502h-477v270h899v-295l-488 -502h496v-270h-918z" />
<glyph unicode="{" horiz-adv-x="796" d="M61 541v184q40 -3 109 23q65 24 68 112v412q3 144 92 215q86 65 200 65h205v-184h-96q-37 0 -64 -10q-24 -12 -36 -33q-22 -45 -19 -88v-377q0 -64 -22 -110q-24 -44 -62 -68q-75 -44 -153 -47v-4q35 0 75 -6q38 -8 78 -31q37 -21 62 -72q22 -52 22 -131v-362 q0 -13 4 -41q3 -25 15 -43t36 -33q22 -11 64 -14h96v-185h-205q-115 0 -200 70q-89 68 -92 211v397q-3 100 -68 127q-69 26 -109 23z" />
<glyph unicode="|" horiz-adv-x="454" d="M98 -25v1565h258v-1565h-258z" />
<glyph unicode="}" horiz-adv-x="796" d="M61 -102h97q82 3 102 47q16 43 16 84v377q3 63 29 114q21 44 60 66q74 45 149 45v4q-33 3 -72 12q-36 8 -77 31q-39 25 -60 72q-26 51 -29 124v363q0 42 -16 88q-21 40 -102 43h-97v184h205q114 0 203 -65q87 -69 90 -215v-398q0 -46 23 -79q20 -29 49 -45 q66 -28 104 -25v-184q-27 0 -45 -2q-27 -3 -59 -19q-69 -23 -72 -114v-412q-3 -145 -90 -211q-88 -70 -203 -70h-205v185z" />
<glyph unicode="~" horiz-adv-x="1228" d="M141 539q35 69 95 120q62 53 161 56q65 0 123 -21q58 -18 111 -45q80 -35 106 -45q47 -20 97 -20q62 0 104 45q38 38 76 96l73 -223q-34 -67 -92 -119q-59 -59 -164 -59q-65 0 -116 22q-53 19 -113 45q-58 28 -104 45q-52 21 -103 21q-59 -3 -102 -43q-43 -46 -78 -101z " />
<glyph unicode="&#xa7;" d="M123 590q0 101 51 164q44 57 133 114q-66 32 -114 99t-48 141q0 110 52 180q45 68 125 107q167 66 356 63q174 -3 332 -51l-17 -254q-151 59 -317 59q-61 0 -111 -16q-51 -20 -51 -78q0 -28 29 -51q29 -26 69 -45q28 -12 209 -82q126 -48 213 -123q91 -79 94 -223 q0 -88 -45 -156q-46 -70 -122 -125q68 -33 106 -102q37 -70 37 -145q-3 -96 -49 -160q-51 -67 -131 -109q-174 -80 -355 -80q-249 6 -397 60l18 268q181 -79 365 -82q71 0 129 23q51 20 51 84q0 34 -24 61q-24 24 -70 45q-60 28 -211 86q-121 47 -209 123q-95 77 -98 205z M430 641q0 -49 35 -84q59 -53 135 -80q150 -59 160 -63q58 67 61 155q0 37 -20 60q-21 24 -45 35q-117 64 -258 120q-23 -26 -45 -65q-23 -41 -23 -78z" />
<glyph unicode="&#xa8;" horiz-adv-x="946" d="M92 1198v295h295v-295h-295zM559 1198v295h295v-295h-295z" />
<glyph unicode="&#xa9;" horiz-adv-x="1638" d="M80 717q3 316 219 526q209 212 520 215q315 -3 524 -215q213 -210 216 -526q-3 -312 -216 -522q-211 -217 -524 -220q-309 3 -520 220q-216 210 -219 522zM313 717q3 -232 150 -379q145 -151 356 -154q214 3 359 154q144 147 147 379q-3 230 -147 383q-143 146 -359 149 q-213 -3 -356 -149q-147 -153 -150 -383zM432 717q0 185 109 303q99 120 288 123q330 -6 345 -312h-197q-16 60 -47 87q-29 26 -101 26q-78 -3 -118 -61q-45 -57 -45 -166t45 -166q40 -64 118 -64q70 0 101 31q32 25 47 82h197q-15 -308 -345 -311q-187 3 -288 125 q-109 121 -109 303z" />
<glyph unicode="&#xab;" d="M96 553l244 418h303l-225 -418l225 -420h-303zM584 553l243 418h303l-225 -418l225 -420h-303z" />
<glyph unicode="&#xac;" horiz-adv-x="1228" d="M96 627v258h1037v-664h-259v406h-778z" />
<glyph unicode="&#xad;" horiz-adv-x="681" d="M63 418v270h555v-270h-555z" />
<glyph unicode="&#xae;" horiz-adv-x="1638" d="M80 717q3 316 219 526q209 212 520 215q315 -3 524 -215q213 -210 216 -526q-3 -312 -216 -522q-211 -217 -524 -220q-309 3 -520 220q-216 210 -219 522zM313 717q3 -232 150 -379q145 -151 356 -154q214 3 359 154q144 147 147 379q-3 230 -147 383q-143 146 -359 149 q-213 -3 -356 -149q-147 -153 -150 -383zM526 315v809h328q152 3 231 -49q78 -54 78 -188q-3 -112 -61 -164q-63 -51 -164 -57l192 -351h-196l-176 338h-35v-338h-197zM723 809h119q122 -3 125 88q-3 44 -45 59q-57 11 -97 11h-102v-158z" />
<glyph unicode="&#xb0;" horiz-adv-x="819" d="M109 1157q3 131 90 215q83 83 211 86q129 -3 215 -86q83 -86 86 -215q-3 -130 -86 -213q-84 -87 -215 -90q-130 3 -211 90q-87 81 -90 213zM264 1157q0 -59 43 -102q42 -45 103 -45q65 0 104 45q38 41 41 102q-3 67 -41 105t-104 41q-62 -3 -103 -41q-43 -40 -43 -105z " />
<glyph unicode="&#xb1;" horiz-adv-x="1228" d="M96 0v258h1037v-258h-1037zM96 549v258h389v229h258v-229h390v-258h-390v-230h-258v230h-389z" />
<glyph unicode="&#xb4;" horiz-adv-x="821" d="M203 1198l139 295h383l-264 -295h-258z" />
<glyph unicode="&#xb6;" horiz-adv-x="1269" d="M37 1075q3 205 135 285q127 77 322 74h690v-1692h-246v1507h-199v-1507h-245v973q-192 -3 -322 76q-132 77 -135 284z" />
<glyph unicode="&#xb7;" horiz-adv-x="626" d="M123 557q0 84 57 135q56 53 133 56q83 -3 136 -56q52 -52 55 -135q-3 -78 -55 -133q-51 -57 -136 -57q-79 0 -133 57q-57 54 -57 133z" />
<glyph unicode="&#xbb;" d="M121 133l225 420l-225 418h303l244 -418l-244 -420h-303zM608 133l226 420l-226 418h303l244 -418l-244 -420h-303z" />
<glyph unicode="&#x131;" horiz-adv-x="684" d="M158 0v1067h368v-1067h-368z" />
<glyph unicode="&#x2d9;" horiz-adv-x="681" d="M195 1198v295h294v-295h-294z" />
<glyph unicode="&#x401;" horiz-adv-x="1261" d="M133 0v1434h1008v-271h-627v-297h592v-270h-592v-326h649v-270h-1030zM238 1587v271h270v-271h-270zM748 1587v271h270v-271h-270z" />
<glyph unicode="&#x402;" horiz-adv-x="1615" d="M27 1151v283h1085v-283h-391v-297q135 64 299 64q178 0 287 -68q176 -112 176 -404q0 -232 -111 -354q-106 -117 -317 -117q-71 0 -115.5 5.5t-114.5 23.5v275q60 -25 131 -25q68 0 103 49q31 41 31 135v29q0 93 -48 141q-45 39 -122 39q-106 0 -199 -49v-598h-381v1151 h-313z" />
<glyph unicode="&#x403;" horiz-adv-x="1103" d="M133 0v1434h965v-283h-584v-1151h-381zM315 1505l146 295h401l-276 -295h-271z" />
<glyph unicode="&#x404;" horiz-adv-x="1392" d="M76 715q0 182 65.5 330t175.5 241q206 172 568 172q221 0 424 -80l-39 -293q-161 101 -352 101q-209 0 -326 -109q-90 -83 -107 -205h539v-262h-545q11 -147 113 -245q120 -117 354 -117q165 0 348 74l13 -287q-111 -34 -200.5 -47t-201.5 -13q-81 0 -151.5 7 t-154.5 26.5t-163 61t-145 102.5q-94 88 -154.5 225.5t-60.5 317.5z" />
<glyph unicode="&#x405;" d="M90 1014q0 252 229 368q153 76 388 76q201 0 374 -53l-24 -295q-141 66 -318 66q-124 0 -182 -27q-74 -32 -74 -109q0 -36 21 -61q22 -28 73 -50t146 -48l22 -7q70 -18 152 -50.5t133 -73.5q129 -104 129 -301q0 -235 -164 -357q-158 -117 -465 -117q-215 0 -426 62 l33 315q182 -94 393 -94q136 0 189 41q47 37 47 100q0 65 -55 107q-20 15 -50 29t-48 20.5t-72 23t-70 21.5l-59 18q-94 29 -172 85t-115 137q-35 78 -35 174z" />
<glyph unicode="&#x406;" horiz-adv-x="684" d="M152 0v1434h380v-1434h-380z" />
<glyph unicode="&#x407;" horiz-adv-x="909" d="M29 14v316q74 -35 172 -35q71 0 116 43q78 72 78 272v824h381v-938q0 -265 -125 -392q-57 -58 -146.5 -93.5t-205.5 -35.5q-95 0 -236 31z" />
<glyph unicode="&#x408;" horiz-adv-x="909" d="M29 14v316q74 -35 172 -35q71 0 116 43q78 72 78 272v824h381v-938q0 -265 -125 -392q-57 -58 -146.5 -93.5t-205.5 -35.5q-95 0 -236 31z" />
<glyph unicode="&#x409;" horiz-adv-x="2160" d="M20 0v295q38 -10 76 -10q69 0 115 41q44 39 57 125q20 108 27 303q10 295 10 420v260h1057v-537h154h14q50 0 79.5 -0.5t85 -6t95 -16t87 -32t83.5 -51.5q64 -55 102.5 -146t38.5 -203q0 -217 -162 -338q-138 -104 -393 -104h-565v1163h-326v-172q0 -237 -16 -469 q-11 -142 -37 -246.5t-86 -169.5q-53 -59 -140 -90.5t-196 -31.5q-58 0 -160 16zM1362 270h92q43 0 67.5 1t70 12t71.5 32q57 46 57 140q0 96 -67 139q-50 33 -178 33h-113v-357z" />
<glyph unicode="&#x40a;" horiz-adv-x="2127" d="M133 0v1434h381v-537h432v537h381v-537h158h14q50 0 79 -0.5t84.5 -6t95 -16t87.5 -32t84 -51.5q59 -50 99 -137.5t40 -211.5q0 -218 -159 -338q-138 -104 -393 -104h-570v627h-432v-627h-381zM1327 270h92q44 0 68 1t69 12t72 32q60 48 60 140q0 95 -70 139 q-25 16 -63 24t-57 8.5t-58 0.5h-113v-357z" />
<glyph unicode="&#x40b;" horiz-adv-x="1583" d="M27 1151v283h1085v-283h-391v-287q138 54 315 54q279 0 377 -164q27 -46 42 -118.5t15 -146.5v-489h-380v420q0 41 -1 64t-10 57t-26 55q-41 51 -146 51q-83 0 -186 -35v-612h-381v1151h-313z" />
<glyph unicode="&#x40c;" horiz-adv-x="1421" d="M133 0v1434h381v-621h18l420 621h424l-483 -662l537 -772h-439l-459 688h-18v-688h-381zM489 1505l146 295h401l-276 -295h-271z" />
<glyph unicode="&#x40e;" horiz-adv-x="1417" d="M-4 1434h438l223 -482l93 -231h6q60 186 108 301l176 412h398l-561 -1188q-25 -50 -74 -116t-96 -95q-94 -60 -244 -60q-119 0 -238 45l27 259q78 -31 137 -31t94 24q43 30 58 64l24 55zM322 1853l192 25q11 -59 45 -88q48 -45 156 -45q107 0 155 45q34 29 45 88l191 -25 q3 -133 -86 -219q-105 -98 -305 -98q-198 0 -303 98q-87 81 -90 219z" />
<glyph unicode="&#x40f;" horiz-adv-x="1449" d="M133 0v1434h381v-1164h422v1164h381v-1434h-408v-334h-368v334h-408z" />
<glyph unicode="&#x410;" horiz-adv-x="1519" d="M-20 0l542 1434h467l551 -1434h-418l-106 305h-537l-112 -305h-387zM567 578h359l-170 561h-4z" />
<glyph unicode="&#x411;" horiz-adv-x="1351" d="M133 0v1434h1032v-283h-651v-272h94q204 0 288 -12q142 -21 228 -85q26 -20 49 -46t49.5 -68.5t42 -106t15.5 -137.5q0 -214 -160 -326q-141 -98 -393 -98h-594zM514 270h117q150 0 209 43q59 42 59 123q0 107 -84 148q-52 24 -197 24h-104v-338z" />
<glyph unicode="&#x412;" horiz-adv-x="1376" d="M133 0v1434h658q241 0 364 -115q100 -93 100 -254q0 -120 -59 -201q-34 -46 -85.5 -79.5t-106.5 -49.5v-4q39 -6 75 -17.5t76.5 -36t69.5 -58.5t48 -88.5t19 -122.5q0 -203 -153 -312q-136 -96 -404 -96h-602zM514 270h129q142 0 205 43q63 42 63 123q0 106 -90 146 q-65 26 -190 26h-117v-338zM514 866h107q136 0 194 41q59 40 59 111q0 65 -40 100q-52 45 -187 45h-133v-297z" />
<glyph unicode="&#x413;" horiz-adv-x="1103" d="M133 0v1434h965v-283h-584v-1151h-381z" />
<glyph unicode="&#x414;" horiz-adv-x="1556" d="M0 270h125q78 148 121 285q63 208 63 573v306h1065v-1164h172v-604h-368v334h-809v-334h-369v604zM489 270h504v893h-344v-104q0 -91 -2 -154.5t-15 -167.5t-38 -200q-39 -148 -105 -267z" />
<glyph unicode="&#x415;" horiz-adv-x="1261" d="M133 0v1434h1008v-271h-627v-297h592v-270h-592v-326h649v-270h-1030z" />
<glyph unicode="&#x416;" horiz-adv-x="2068" d="M-10 0l483 766l-430 668h406l376 -621h19v621h381v-621h18l377 621h405l-430 -668l484 -766h-424l-412 688h-18v-688h-381v688h-19l-411 -688h-424z" />
<glyph unicode="&#x417;" horiz-adv-x="1204" d="M51 63l23 275q85 -38 190 -68q103 -28 207 -28q121 0 184 37q88 49 88 157q0 88 -67 131q-62 41 -215 41h-156v264h156q134 0 190 41q62 45 62 127q0 76 -56 113q-51 39 -165 39q-101 0 -207 -25q-78 -18 -150 -53l-29 272q116 36 197 52q114 20 246 20q266 0 397 -96 q150 -108 150 -295q0 -129 -70 -209q-72 -85 -190 -113v-4q123 -18 204 -96q93 -88 93 -235q0 -87 -40 -175t-137 -153q-159 -107 -454 -107q-147 0 -279 35q-43 11 -172 53z" />
<glyph unicode="&#x418;" horiz-adv-x="1546" d="M133 0v1434h381v-615l-12 -352h12l442 967h457v-1434h-381v614l12 353h-12l-442 -967h-457z" />
<glyph unicode="&#x419;" horiz-adv-x="1546" d="M133 0v1434h381v-615l-12 -352h12l442 967h457v-1434h-381v614l12 353h-12l-442 -967h-457zM381 1853l192 25q11 -59 45 -88q48 -45 156 -45t156 45q34 29 45 88l190 -25q3 -133 -86 -219q-105 -98 -305 -98q-198 0 -303 98q-87 81 -90 219z" />
<glyph unicode="&#x41a;" horiz-adv-x="1421" d="M133 0v1434h381v-621h18l420 621h424l-483 -662l537 -772h-439l-459 688h-18v-688h-381z" />
<glyph unicode="&#x41b;" horiz-adv-x="1519" d="M20 0v295q38 -10 76 -10q69 0 115 41q44 39 57 125q20 108 27 303q10 295 10 420v260h1081v-1434h-380v1163h-351v-172q0 -237 -16 -469q-11 -142 -37 -246.5t-86 -169.5q-53 -59 -140 -90.5t-196 -31.5q-58 0 -160 16z" />
<glyph unicode="&#x41c;" horiz-adv-x="2068" d="M133 0v1434h600l303 -953h4l318 953h577v-1434h-372l6 1102h-4l-365 -1102h-350l-348 1102h-4l8 -1102h-373z" />
<glyph unicode="&#x41d;" horiz-adv-x="1478" d="M133 0v1434h381v-549h451v549h381v-1434h-381v614h-451v-614h-381z" />
<glyph unicode="&#x41e;" horiz-adv-x="1593" d="M80 717q0 361 188 551t529 190q340 0 528 -190t188 -551t-188 -551q-189 -191 -528 -191q-340 0 -529 191q-188 190 -188 551zM473 717q0 -225 88 -342q84 -117 236 -117q151 0 235 117q88 117 88 342t-88 342q-84 117 -235 117q-152 0 -236 -117q-88 -117 -88 -342z" />
<glyph unicode="&#x41f;" horiz-adv-x="1458" d="M133 0v1434h1192v-1434h-381v1163h-430v-1163h-381z" />
<glyph unicode="&#x420;" horiz-adv-x="1271" d="M133 0v1434h455q372 0 520 -144q121 -117 121 -327q0 -179 -107 -297q-150 -164 -460 -164h-148v-502h-381zM514 772h98q121 0 181 53q55 50 55 144q0 100 -68 151q-58 43 -168 43h-98v-391z" />
<glyph unicode="&#x421;" horiz-adv-x="1366" d="M80 715q0 182 65.5 329t176.5 240q102 85 251 129.5t326 44.5q199 0 424 -74l-31 -309q-185 101 -370 101q-197 0 -320 -123q-58 -58 -93.5 -147t-35.5 -195q0 -101 34.5 -188t94.5 -144q61 -58 154 -89.5t194 -31.5q173 0 357 74l18 -299q-218 -58 -403 -58 q-213 0 -376.5 56.5t-264 157.5t-151 233.5t-50.5 292.5z" />
<glyph unicode="&#x422;" horiz-adv-x="1138" d="M27 1151v283h1085v-283h-352v-1151h-381v1151h-352z" />
<glyph unicode="&#x423;" horiz-adv-x="1417" d="M-4 1434h438l223 -482l93 -231h6q60 186 108 301l176 412h398l-561 -1188q-25 -50 -74 -116t-96 -95q-94 -60 -244 -60q-119 0 -238 45l27 259q78 -31 137 -31t94 24q43 30 58 64l24 55z" />
<glyph unicode="&#x424;" horiz-adv-x="1941" d="M61 717q0 114 34 212.5t78 156.5t99 102q165 133 430 133h78v195h381v-195h78q265 0 430 -133q55 -44 99 -102t78 -156.5t34 -212.5q0 -315 -215 -473q-13 -10 -26 -18.5t-58 -31.5t-89.5 -38.5t-113.5 -29t-139 -13.5h-78v-195h-381v195h-78q-70 0 -139 13.5t-113.5 29 t-89.5 38.5t-58 31.5t-26 18.5q-215 158 -215 473zM451 717q0 -162 90 -248q35 -34 89.5 -54t112.5 -20h45v643h-47q-125 0 -198 -69q-92 -83 -92 -252zM1153 395h45q58 0 113 20t90 54q90 86 90 248q0 169 -92 252q-73 69 -199 69h-47v-643z" />
<glyph unicode="&#x425;" horiz-adv-x="1478" d="M20 0l463 754l-413 680h444l240 -473l245 473h418l-418 -680l459 -754h-454l-277 528l-274 -528h-433z" />
<glyph unicode="&#x426;" horiz-adv-x="1499" d="M133 0v1434h381v-1164h422v1164h381v-1164h172v-604h-369v334h-987z" />
<glyph unicode="&#x427;" horiz-adv-x="1406" d="M92 915v519h381v-449q0 -135 41 -176q43 -51 162 -51q98 0 217 35v641h381v-1434h-381v528q-137 -41 -299 -41q-307 0 -424 152q-78 101 -78 276z" />
<glyph unicode="&#x428;" horiz-adv-x="2039" d="M133 0v1434h381v-1164h315v1164h381v-1164h316v1164h381v-1434h-1774z" />
<glyph unicode="&#x429;" horiz-adv-x="2088" d="M133 0v1434h381v-1164h315v1164h381v-1164h316v1164h381v-1164h172v-592h-369v322h-1577z" />
<glyph unicode="&#x42a;" horiz-adv-x="1564" d="M20 1151v283h730v-537h172h14q50 0 79 -0.5t84.5 -6t95 -16t87.5 -32t84 -51.5q59 -50 99 -137.5t40 -211.5q0 -218 -159 -338q-138 -104 -394 -104h-583v1151h-349zM750 270h106q44 0 68 1t69 12t72 32q59 47 59 140q0 95 -69 139q-25 16 -63 24t-57 8.5t-58 0.5h-127 v-357z" />
<glyph unicode="&#x42b;" horiz-adv-x="1966" d="M133 0v1434h381v-537h172h14q50 0 79 -0.5t84.5 -6t95 -16t87.5 -32t84 -51.5q59 -50 99.5 -137.5t40.5 -211.5q0 -217 -160 -338q-138 -104 -393 -104h-584zM514 270h107q44 0 68 1t68.5 12t71.5 32q60 48 60 140q0 95 -70 139q-25 16 -63 24t-57 8.5t-58 0.5h-127v-357 zM1452 0v1434h381v-1434h-381z" />
<glyph unicode="&#x42c;" horiz-adv-x="1329" d="M133 0v1434h381v-537h172h14q50 0 79 -0.5t84.5 -6t95 -16t87.5 -32t84 -51.5q59 -50 99.5 -137.5t40.5 -211.5q0 -217 -160 -338q-138 -104 -393 -104h-584zM514 270h107q44 0 68 1t68.5 12t71.5 32q60 48 60 140q0 95 -70 139q-25 16 -63 24t-57 8.5t-58 0.5h-127v-357 z" />
<glyph unicode="&#x42d;" horiz-adv-x="1392" d="M76 1378q203 80 424 80q361 0 567 -172q111 -93 176.5 -241t65.5 -330q0 -180 -60.5 -317.5t-154.5 -225.5q-66 -61 -145 -102.5t-163 -61t-155 -26.5t-152 -7q-112 0 -201 13t-200 47l12 287q183 -74 348 -74q235 0 355 117q101 97 112 245h-545v262h539 q-18 123 -106 205q-117 109 -326 109q-191 0 -352 -101z" />
<glyph unicode="&#x42e;" horiz-adv-x="2166" d="M133 0v1434h381v-549h191q13 104 56 207.5t111 175.5q179 190 508 190q338 0 521 -190q186 -193 186 -551t-186 -551q-184 -191 -521 -191q-330 0 -508 191q-76 81 -122 203t-54 245h-182v-614h-381zM1067 717q0 -227 86 -344q84 -115 227 -115q141 0 228 113 q86 115 86 346q0 227 -86 344q-82 115 -228 115q-133 0 -217 -101q-96 -119 -96 -358z" />
<glyph unicode="&#x42f;" horiz-adv-x="1366" d="M51 0l342 596q-101 26 -166 98q-90 97 -90 269q0 246 158 362q140 109 483 109h455v-1434h-381v502h-125l-250 -502h-426zM518 969q0 -94 55 -144q60 -53 181 -53h98v391h-98q-110 0 -168 -43q-68 -51 -68 -151z" />
<glyph unicode="&#x430;" horiz-adv-x="1243" d="M63 307q0 33 6.5 67t23.5 78.5t56 85.5t95 70q131 66 370 66q82 0 172 -10q3 74 -47 124q-60 58 -200 58q-182 0 -336 -80l-6 250q187 76 419 76q236 0 367 -103q147 -116 147 -340v-397q0 -138 13 -252h-334l-4 168h-4q-42 -70 -96 -113q-98 -80 -242 -80 q-174 0 -283 84q-117 92 -117 248zM408 338q0 -50 41 -84q39 -33 108 -33q109 0 174 86q50 67 55 166q-57 8 -143 8q-124 0 -176 -35q-59 -40 -59 -108z" />
<glyph unicode="&#x431;" horiz-adv-x="1384" d="M72 772q0 91 5.5 160.5t22 154t53.5 158.5t93 133q62 65 142 105t149 54.5t159 21.5q65 5 156.5 9.5t135 7.5t108 13.5t131.5 30.5v-315q-47 -14 -90 -22.5t-94 -14t-82 -8t-102 -6t-107 -5.5q-59 -3 -90.5 -6.5t-79 -13.5t-84 -32.5t-66.5 -57.5q-33 -38 -49.5 -86.5 t-19.5 -82.5t-3 -91v-52h13q113 240 407 240q235 0 379 -129q73 -66 117.5 -170t44.5 -236q0 -268 -193 -428q-163 -131 -417 -131q-255 0 -418 131q-128 102 -174.5 262t-46.5 406zM481 532q0 -151 70 -231q61 -70 160 -70q98 0 159 70q70 80 70 231q0 141 -70 216 q-62 65 -159 65q-98 0 -160 -65q-70 -75 -70 -216z" />
<glyph unicode="&#x432;" horiz-adv-x="1320" d="M115 0v1067h745q148 0 234 -57q55 -36 81.5 -91.5t26.5 -115.5q0 -44 -16 -89.5t-45 -74.5q-25 -26 -68 -48t-80 -30v-4q90 -9 164 -65q82 -69 82 -193q0 -147 -113 -229q-96 -70 -266 -70h-745zM483 215h189q102 0 141 23q47 30 47 88q0 66 -43 100q-39 33 -147 33h-187 v-244zM483 659h191q79 0 121 27q39 27 39 80q0 48 -46 70q-36 16 -114 16h-191v-193z" />
<glyph unicode="&#x433;" horiz-adv-x="991" d="M115 0v1067h856v-270h-488v-797h-368z" />
<glyph unicode="&#x434;" horiz-adv-x="1353" d="M0 270h109q53 85 81 193q31 121 31 393v211h975v-797h158v-571h-348v301h-658v-301h-348v571zM446 258h381v551h-282v-107q0 -178 -33 -294q-21 -79 -66 -150z" />
<glyph unicode="&#x435;" d="M63 539q0 44 6.5 89t23 104t54 118t91.5 106q156 136 399 136q259 0 399 -160q64 -73 101 -185.5t37 -252.5v-68h-738q7 -57 33 -95t53 -55q79 -55 234 -55q156 0 319 82v-260q-162 -68 -383 -68q-289 0 -456 154q-173 160 -173 410zM432 635h410q4 87 -54 164 q-51 59 -147 59q-93 0 -149 -61q-60 -67 -60 -162z" />
<glyph unicode="&#x436;" horiz-adv-x="1736" d="M-12 0l336 584l-287 483h377l256 -498h20v498h357v-498h20l256 498h377l-287 -483l336 -584h-406l-276 532h-20v-532h-357v532h-20l-277 -532h-405z" />
<glyph unicode="&#x437;" horiz-adv-x="1105" d="M41 45l12 258q78 -44 174 -67q122 -27 209 -27q50 0 90.5 7.5t54.5 13.5t21 10q51 29 51 86q0 60 -55 86q-52 24 -154 24h-170v221h185q96 0 131 29q33 24 33 74q0 21 -9 36.5t-19 22.5t-26 15q-49 24 -143 24q-96 0 -190 -24q-76 -19 -146 -58l-24 248q85 31 163 45 q131 23 283 23q233 0 348 -70q67 -40 103 -101.5t36 -127.5q0 -89 -55 -154q-58 -66 -145 -84v-4q102 -8 172 -78q63 -63 63 -174q0 -191 -217 -274q-133 -50 -332 -50q-150 0 -282 27q-81 16 -162 43z" />
<glyph unicode="&#x438;" horiz-adv-x="1425" d="M115 0v1067h368v-322l-10 -335h6l416 657h416v-1067h-369v317l10 340h-6l-416 -657h-415z" />
<glyph unicode="&#x439;" horiz-adv-x="1425" d="M115 0v1067h368v-322l-10 -335h6l416 657h416v-1067h-369v317l10 340h-6l-416 -657h-415zM350 1499l176 25q8 -51 43 -86q45 -43 144 -43q98 0 143 43q35 35 43 86l176 -25q5 -130 -80 -213q-96 -94 -282 -94q-187 0 -283 94q-85 83 -80 213z" />
<glyph unicode="&#x43a;" horiz-adv-x="1308" d="M115 0v1067h368v-481h21l360 481h406l-385 -487l430 -580h-434l-377 532h-21v-532h-368z" />
<glyph unicode="&#x43b;" horiz-adv-x="1349" d="M10 0l4 262q33 -10 72 -10q55 0 90 45q26 34 36 108t15 238l11 424h997v-1067h-369v797h-301l-6 -273q-3 -172 -15.5 -262t-47.5 -145q-86 -142 -291 -142q-101 0 -195 25z" />
<glyph unicode="&#x43c;" horiz-adv-x="1722" d="M115 0v1067h526l221 -700l219 700h527v-1067h-359l11 705h-15l-219 -705h-330l-219 705h-14l10 -357v-348h-358z" />
<glyph unicode="&#x43d;" horiz-adv-x="1366" d="M115 0v1067h368v-375h400v375h368v-1067h-368v422h-400v-422h-368z" />
<glyph unicode="&#x43e;" horiz-adv-x="1368" d="M63 532q0 273 197 429q166 131 424 131t424 -131q197 -156 197 -429q0 -272 -197 -428q-161 -129 -424 -129t-424 129q-197 156 -197 428zM444 532q0 -149 74 -231q64 -70 166 -70t166 70q74 82 74 231q0 150 -74 232q-64 70 -166 70t-166 -70q-74 -82 -74 -232z" />
<glyph unicode="&#x43f;" horiz-adv-x="1341" d="M115 0v1067h1112v-1067h-369v797h-375v-797h-368z" />
<glyph unicode="&#x440;" horiz-adv-x="1376" d="M115 -430v1497h340v-193h4q55 109 172 168q97 50 219 50q93 0 171.5 -33t131 -87.5t89.5 -126.5t54 -149.5t17 -156.5q0 -226 -115 -379q-137 -185 -373 -185q-112 0 -196 43q-89 43 -142 132h-4v-580h-368zM483 530q0 -105 66 -194q65 -78 160 -78q104 0 165 84 q58 83 58 190q0 123 -60 199q-63 78 -163 78q-91 0 -154 -68q-72 -78 -72 -211z" />
<glyph unicode="&#x441;" horiz-adv-x="1024" d="M63 532q0 129 55 251t179 204q156 105 399 105q156 0 281 -60l-27 -270q-98 59 -213 59q-118 0 -192 -61q-48 -40 -74.5 -100t-26.5 -128q0 -127 93 -210q85 -76 221 -76q110 0 219 51l8 -274q-153 -48 -293 -48q-173 0 -311 61.5t-215 166.5q-103 143 -103 329z" />
<glyph unicode="&#x442;" horiz-adv-x="1052" d="M14 797v270h1024v-270h-327v-797h-369v797h-328z" />
<glyph unicode="&#x443;" horiz-adv-x="1239" d="M16 1067h398l229 -696h4l219 696h369l-410 -1038q-44 -117 -71 -174q-74 -161 -172 -234q-63 -46 -128 -61t-159 -15q-81 0 -203 25l25 280q60 -22 133 -22q88 0 135 43q43 35 64 104z" />
<glyph unicode="&#x444;" horiz-adv-x="1871" d="M72 530q0 33 3.5 72t15 106t42 135.5t76.5 119.5q115 129 317 129q136 0 230 -62v506h368v-506q94 62 230 62q202 0 317 -129q46 -51 76.5 -119.5t42 -135.5t15 -106t3.5 -72q0 -139 -37.5 -249t-103.5 -179q-120 -127 -319 -127q-126 0 -224 62v-467h-368v467 q-98 -62 -224 -62q-199 0 -319 127q-66 69 -103.5 179t-37.5 249zM440 535q0 -134 47 -209q48 -80 146 -80q75 0 133 39v499q-55 39 -129 39q-57 0 -93.5 -21t-62.5 -71q-41 -80 -41 -196zM1114 285q58 -39 133 -39q98 0 146 80q47 75 47 209q0 116 -41 196q-26 50 -62.5 71 t-93.5 21q-74 0 -129 -39v-499z" />
<glyph unicode="&#x445;" horiz-adv-x="1214" d="M0 0l362 543l-333 524h436l158 -319l165 319h404l-334 -520l356 -547h-444l-178 332l-176 -332h-416z" />
<glyph unicode="&#x446;" horiz-adv-x="1372" d="M115 0v1067h368v-797h363v797h368v-797h158v-571h-348v301h-909z" />
<glyph unicode="&#x447;" horiz-adv-x="1275" d="M70 729v338h368v-285q0 -75 29 -110q36 -43 141 -43q97 0 185 26v412h368v-1067h-368v399q-141 -41 -306 -41q-82 0 -148 13t-107 35t-64 40.5t-39 38.5q-37 50 -48 108.5t-11 135.5z" />
<glyph unicode="&#x448;" horiz-adv-x="1859" d="M115 0v1067h368v-797h273v797h348v-797h272v797h369v-1067h-1630z" />
<glyph unicode="&#x449;" horiz-adv-x="1902" d="M115 0v1067h368v-797h273v797h348v-797h272v797h369v-797h158v-571h-349v301h-1439z" />
<glyph unicode="&#x44a;" horiz-adv-x="1415" d="M20 797v270h623v-336h289q99 0 178.5 -18.5t144.5 -75.5q111 -99 111 -279q0 -178 -121 -272q-112 -86 -327 -86h-644v797h-254zM643 246h180q84 0 121 28q41 30 41 93q0 65 -49 96q-36 22 -96 22h-197v-239z" />
<glyph unicode="&#x44b;" horiz-adv-x="1837" d="M115 0v1067h368v-336h289q99 0 179 -18.5t145 -75.5q110 -98 110 -279q0 -178 -121 -272q-112 -86 -327 -86h-643zM483 246h181q83 0 120 28q41 30 41 93q0 65 -49 96q-36 22 -96 22h-197v-239zM1354 0v1067h368v-1067h-368z" />
<glyph unicode="&#x44c;" horiz-adv-x="1255" d="M115 0v1067h368v-336h289q99 0 179 -18.5t145 -75.5q110 -98 110 -279q0 -178 -121 -272q-112 -86 -327 -86h-643zM483 246h181q83 0 120 28q41 30 41 93q0 65 -49 96q-36 22 -96 22h-197v-239z" />
<glyph unicode="&#x44d;" horiz-adv-x="1052" d="M41 31l12 233q127 -55 262 -55q141 0 213 61q77 65 80 179h-395v213h395q-16 90 -82 141q-67 55 -198 55q-139 0 -252 -49l-25 227q148 56 314 56q264 0 421 -115q35 -26 66.5 -60t64.5 -86t52.5 -127t19.5 -161q0 -139 -48 -249t-130 -181q-160 -138 -442 -138 q-180 0 -328 56z" />
<glyph unicode="&#x44e;" horiz-adv-x="1882" d="M115 0v1067h368v-379h154q31 163 162 273q152 131 407 131q252 0 418 -131q36 -29 67 -65t61.5 -88.5t48.5 -123.5t18 -152q0 -270 -195 -428q-160 -129 -418 -129q-256 0 -407 129q-149 129 -172 326h-144v-430h-368zM975 532q0 -147 72 -231q61 -70 159 -70 q99 0 160 70q72 84 72 231q0 148 -72 232q-61 70 -160 70q-98 0 -159 -70q-72 -84 -72 -232z" />
<glyph unicode="&#x44f;" horiz-adv-x="1247" d="M31 0l262 434q-115 11 -179.5 96.5t-64.5 200.5q0 336 447 336h637v-1067h-369v365h-146l-190 -365h-397zM430 707q0 -56 39 -84q38 -27 111 -27h184v225h-184q-81 0 -115 -28q-35 -29 -35 -86z" />
<glyph unicode="&#x451;" d="M63 539q0 44 6.5 89t23 104t54 118t91.5 106q156 136 399 136q259 0 399 -160q64 -73 101 -185.5t37 -252.5v-68h-738q7 -57 33 -95t53 -55q79 -55 234 -55q156 0 319 82v-260q-162 -68 -383 -68q-289 0 -456 154q-173 160 -173 410zM246 1198v295h295v-295h-295z M432 635h410q4 87 -54 164q-51 59 -147 59q-93 0 -149 -61q-60 -67 -60 -162zM713 1198v295h295v-295h-295z" />
<glyph unicode="&#x452;" horiz-adv-x="1366" d="M-20 1217v143h147v176h369v-176h434v-143h-434v-308h4q64 88 149 133q91 50 207 50q187 0 295 -111q113 -113 113 -315v-592q0 -79 -4 -137t-25.5 -134.5t-60.5 -124.5q-42 -53 -125 -93t-215 -40q-78 0 -148 19l8 237q32 -8 70 -8q61 0 98 47q33 46 33 185v491 q0 170 -68 232q-38 36 -102 36q-117 0 -178 -92q-51 -81 -51 -241v-451h-369v1217h-147z" />
<glyph unicode="&#x453;" horiz-adv-x="991" d="M115 0v1067h856v-270h-488v-797h-368zM287 1198l139 295h383l-264 -295h-258z" />
<glyph unicode="&#x454;" horiz-adv-x="1052" d="M41 543q0 86 19.5 161t52.5 127t64.5 86t66.5 60q157 115 422 115q165 0 313 -56l-25 -227q-117 49 -252 49q-127 0 -198 -55q-12 -8 -25 -21.5t-32 -47t-25 -72.5h395v-213h-395q3 -114 80 -179q72 -61 213 -61q135 0 262 55l12 -233q-148 -56 -327 -56q-283 0 -443 138 q-82 71 -130 181t-48 249z" />
<glyph unicode="&#x455;" horiz-adv-x="1024" d="M66 739q0 194 163 283q127 70 299 70q209 0 367 -62l-29 -256q-58 33 -114 47q-89 25 -172 25q-89 0 -127 -19q-43 -18 -43 -59q0 -19 12 -35q6 -8 15.5 -15t23.5 -13.5t25 -11t30 -9.5t29.5 -7.5t32 -7.5t28.5 -7l33 -9q120 -29 184 -67q135 -83 135 -254 q0 -170 -118 -260q-125 -97 -408 -97q-191 0 -358 52l20 268q81 -30 139 -45q120 -29 220 -29q73 0 108 25q31 23 31 59q0 42 -41 72q-30 21 -150 53l-53 14q-47 13 -75 22.5t-73 36t-75 62.5q-59 71 -59 174z" />
<glyph unicode="&#x456;" horiz-adv-x="684" d="M158 0v1067h368v-1067h-368zM158 1241v270h368v-270h-368z" />
<glyph unicode="&#x457;" horiz-adv-x="684" d="M-39 1198v295h297v-295h-297zM158 0v1067h368v-1067h-368zM430 1198v295h295v-295h-295z" />
<glyph unicode="&#x458;" horiz-adv-x="641" d="M-51 -436l8 237q30 -10 78 -10q76 0 102 62q21 49 21 147v1067h368v-1077q0 -189 -59 -293q-49 -86 -130.5 -119t-199.5 -33q-81 0 -188 19zM158 1241v270h368v-270h-368z" />
<glyph unicode="&#x459;" horiz-adv-x="1959" d="M10 0l4 262q33 -10 72 -10q55 0 90 45q26 34 36 108t15 238l11 424h976v-336h263q99 0 178.5 -18.5t144.5 -75.5q111 -99 111 -279q0 -178 -121 -272q-112 -86 -328 -86h-616v797h-281l-6 -273q-3 -172 -15.5 -262t-47.5 -145q-86 -142 -291 -142q-101 0 -195 25z M1214 246h154q84 0 121 28q41 30 41 93q0 65 -49 96q-36 22 -97 22h-170v-239z" />
<glyph unicode="&#x45a;" horiz-adv-x="1986" d="M115 0v1067h368v-375h379v375h369v-336h272q99 0 179 -18.5t145 -75.5q110 -98 110 -279q0 -179 -120 -272q-112 -86 -328 -86h-627v422h-379v-422h-368zM1231 246h160q83 0 120 28q41 30 41 93q0 65 -49 96q-36 22 -96 22h-176v-239z" />
<glyph unicode="&#x45b;" horiz-adv-x="1366" d="M-20 1217v143h147v176h369v-176h434v-143h-434v-308h4q64 88 149 133q91 50 207 50q187 0 295 -111q113 -113 113 -315v-666h-369v516q0 170 -68 232q-38 36 -102 36q-117 0 -178 -92q-51 -81 -51 -241v-451h-369v1217h-147z" />
<glyph unicode="&#x45c;" horiz-adv-x="1308" d="M115 0v1067h368v-481h21l360 481h406l-385 -487l430 -580h-434l-377 532h-21v-532h-368zM446 1198l140 295h383l-264 -295h-259z" />
<glyph unicode="&#x45e;" horiz-adv-x="1239" d="M16 1067h398l229 -696h4l219 696h369l-410 -1038q-44 -117 -71 -174q-74 -161 -172 -234q-63 -46 -128 -61t-159 -15q-81 0 -203 25l25 280q60 -22 133 -22q88 0 135 43q43 35 64 104zM256 1499l176 25q8 -51 43 -86q45 -43 143 -43q99 0 144 43q35 35 43 86l176 -25 q5 -130 -80 -213q-96 -94 -283 -94q-186 0 -282 94q-85 83 -80 213z" />
<glyph unicode="&#x45f;" horiz-adv-x="1329" d="M115 0v1067h368v-797h363v797h368v-1067h-376v-301h-346v301h-377z" />
<glyph unicode="&#x490;" horiz-adv-x="1105" d="M123 0v1434h608v182h369v-465h-596v-1151h-381z" />
<glyph unicode="&#x491;" horiz-adv-x="1003" d="M115 0v1067h534v193h348v-463h-514v-797h-368z" />
<glyph unicode="&#x2000;" horiz-adv-x="939" />
<glyph unicode="&#x2001;" horiz-adv-x="1878" />
<glyph unicode="&#x2002;" horiz-adv-x="939" />
<glyph unicode="&#x2003;" horiz-adv-x="1878" />
<glyph unicode="&#x2004;" horiz-adv-x="626" />
<glyph unicode="&#x2005;" horiz-adv-x="469" />
<glyph unicode="&#x2006;" horiz-adv-x="313" />
<glyph unicode="&#x2007;" horiz-adv-x="313" />
<glyph unicode="&#x2008;" horiz-adv-x="234" />
<glyph unicode="&#x2009;" horiz-adv-x="375" />
<glyph unicode="&#x200a;" horiz-adv-x="104" />
<glyph unicode="&#x2010;" horiz-adv-x="681" d="M63 418v270h555v-270h-555z" />
<glyph unicode="&#x2011;" horiz-adv-x="681" d="M63 418v270h555v-270h-555z" />
<glyph unicode="&#x2012;" horiz-adv-x="681" d="M63 418v270h555v-270h-555z" />
<glyph unicode="&#x2013;" horiz-adv-x="1024" d="M0 424v258h1024v-258h-1024z" />
<glyph unicode="&#x2014;" horiz-adv-x="2048" d="M0 424v258h2048v-258h-2048z" />
<glyph unicode="&#x2018;" horiz-adv-x="681" d="M100 877l201 557h281l-138 -557h-344z" />
<glyph unicode="&#x2019;" horiz-adv-x="727" d="M100 877l138 557h344l-201 -557h-281z" />
<glyph unicode="&#x201a;" horiz-adv-x="819" d="M100 -223l138 555h344l-201 -555h-281z" />
<glyph unicode="&#x201c;" d="M150 877l200 557h281l-137 -557h-344zM621 877l200 557h281l-137 -557h-344z" />
<glyph unicode="&#x201d;" horiz-adv-x="1247" d="M150 877l137 557h344l-201 -557h-280zM621 877l137 557h344l-201 -557h-280z" />
<glyph unicode="&#x201e;" horiz-adv-x="1388" d="M150 -223l137 555h346l-201 -555h-282zM618 -223l138 555h346l-201 -555h-283z" />
<glyph unicode="&#x2020;" d="M106 819v273h355v342h332v-342h354v-273h-354v-819h-332v819h-355z" />
<glyph unicode="&#x2021;" d="M106 276v248h355v383h-355v248h355v279h332v-279h354v-248h-354v-383h354v-248h-354v-276h-332v276h-355z" />
<glyph unicode="&#x2022;" horiz-adv-x="1024" d="M156 715q3 154 106 254q96 99 250 102q155 -3 254 -102q101 -101 104 -254q-3 -151 -104 -252q-101 -104 -254 -107q-152 3 -250 107q-103 100 -106 252z" />
<glyph unicode="&#x2026;" horiz-adv-x="2048" d="M170 0v332h344v-332h-344zM852 0v332h344v-332h-344zM1534 0v332h344v-332h-344z" />
<glyph unicode="&#x202f;" horiz-adv-x="375" />
<glyph unicode="&#x2030;" horiz-adv-x="2048" d="M2 1057q-3 166 66 282q67 116 251 119q179 -3 248 -112q70 -110 70 -289q3 -168 -68 -283q-69 -118 -250 -121q-183 3 -249 121q-37 57 -52 129q-16 75 -16 154zM199 -45l792 1524h164l-797 -1524h-159zM236 1057q-3 -66 12 -139q10 -37 26 -56q15 -24 45 -24q34 0 52 24 q16 23 22 56q10 82 10 139q0 59 -10 141q-6 32 -22 55q-18 21 -52 21q-30 0 -45 -21q-17 -20 -26 -55q-15 -74 -12 -141zM717 379q-3 168 65 283q66 115 252 118q179 -3 248 -112q70 -110 70 -289q3 -168 -68 -283q-69 -118 -250 -121q-184 3 -250 121q-35 55 -51 129 q-16 75 -16 154zM950 379q-3 -62 13 -139q10 -37 26 -56q15 -24 45 -24q33 0 51 24q18 25 23 56q10 82 10 139q0 59 -10 141q-5 30 -23 55q-18 21 -51 21q-30 0 -45 -21q-17 -20 -26 -55q-16 -78 -13 -141zM1411 379q-3 167 66 283q66 115 252 118q178 -3 247 -112 q70 -110 70 -289q3 -168 -68 -283q-69 -118 -249 -121q-184 3 -250 121q-37 57 -52 129q-16 75 -16 154zM1645 379q-3 -66 12 -139q10 -37 26 -56q15 -24 46 -24q33 0 51 24q16 23 22 56q10 82 10 139q0 59 -10 141q-6 32 -22 55q-18 21 -51 21q-31 0 -46 -21 q-17 -20 -26 -55q-15 -74 -12 -141z" />
<glyph unicode="&#x2039;" horiz-adv-x="681" d="M57 553l244 418h303l-225 -418l225 -420h-303z" />
<glyph unicode="&#x203a;" horiz-adv-x="681" d="M78 133l225 420l-225 418h303l244 -418l-244 -420h-303z" />
<glyph unicode="&#x205f;" horiz-adv-x="469" />
<glyph unicode="&#x2122;" horiz-adv-x="2048" d="M76 1249v185h704v-185h-241v-669h-222v669h-241zM977 580v854h315l183 -498l182 498h315v-854h-221v559h-4l-182 -559h-181l-182 559h-4v-559h-221z" />
<glyph unicode="&#xe000;" horiz-adv-x="1064" d="M0 0v1065h1065v-1065h-1065z" />
</font>
</defs>
</svg>
