<?xml version="1.0" standalone="no"?>
<!DOCTYPE svg PUBLIC "-//W3C//DTD SVG 1.1//EN" "http://www.w3.org/Graphics/SVG/1.1/DTD/svg11.dtd" >
<svg xmlns="http://www.w3.org/2000/svg">
<metadata></metadata>
<defs>
<font id="freesetcregular" horiz-adv-x="1269" >
<font-face units-per-em="2048" ascent="1638" descent="-410" />
<missing-glyph horiz-adv-x="481" />
<glyph horiz-adv-x="0" />
<glyph unicode="&#xd;" horiz-adv-x="2048" />
<glyph unicode=" "  horiz-adv-x="481" />
<glyph unicode="&#x09;" horiz-adv-x="481" />
<glyph unicode="&#xa0;" horiz-adv-x="481" />
<glyph unicode="!" horiz-adv-x="582" d="M207 0v178h170v-178h-170zM207 1448h170l-26 -1086h-120z" />
<glyph unicode="&#x22;" horiz-adv-x="679" d="M103 1448h197l-45 -358h-107zM381 1448h196l-46 -358h-105z" />
<glyph unicode="#" horiz-adv-x="1338" d="M116 414l20 119h235l67 410h-233l20 121h235l53 326h95l-54 -326h340l53 326h95l-53 -326h233l-20 -121h-234l-68 -410h233l-20 -119h-234l-54 -327h-95l54 327h-340l-53 -327h-95l53 327h-233zM466 533h339l68 410h-340z" />
<glyph unicode="$" d="M227 1105q0 82 31.5 148.5t84.5 108.5t119 66t140 28v170h91v-166q164 0 316 -51l-18 -128q-143 61 -298 61v-537q72 -36 121 -63.5t97 -61t77.5 -66t53 -73t34 -88.5t10.5 -106q0 -55 -15 -103t-39 -82t-58 -62t-69 -46t-75 -31t-72.5 -19.5t-64.5 -9.5v-172h-91v166 q-189 -3 -364 64l14 134q170 -82 350 -79v590q-92 40 -156.5 79t-116 87.5t-77 108.5t-25.5 133zM375 1105q0 -80 56.5 -137.5t170.5 -111.5v480q-55 -9 -97 -28.5t-66 -42.5t-39 -52.5t-20 -54.5t-5 -53zM693 116q120 29 183 88t63 147q0 56 -16 100t-50 79t-76 61.5 t-104 55.5v-531z" />
<glyph unicode="%" horiz-adv-x="2037" d="M207 1073.5q0 172.5 96 279.5t247.5 107t247.5 -107t96 -279.5t-96 -279.5t-247.5 -107t-247.5 107t-96 279.5zM337 1074q0 -76 17 -132.5t47 -88.5t67 -47.5t82.5 -15.5t82.5 15.5t67 47.5t47 88.5t17 132.5q0 61 -11.5 109.5t-30.5 80.5t-46.5 53t-58.5 30t-67 9 q-29 0 -55.5 -6.5t-51 -20t-43.5 -36t-33 -53.5t-22 -73t-8 -93zM468 56l1013 1404l82 -68l-1013 -1404zM1144 374.5q0 172.5 96 280t247.5 107.5t247 -107.5t95.5 -280t-95.5 -279.5t-247 -107t-247.5 107t-96 279.5zM1275 375q0 -76 16.5 -132.5t46.5 -88.5t67 -47.5 t82.5 -15.5t82.5 15.5t67 47.5t46.5 88.5t16.5 132.5t-16.5 132t-46.5 88t-67 47.5t-82.5 15.5t-82.5 -15.5t-67 -47.5t-46.5 -88t-16.5 -132z" />
<glyph unicode="&#x26;" horiz-adv-x="1511" d="M144 377q0 50 8 96t31.5 99.5t61.5 97.5t103 84t151 65q-5 5 -13 14q-37 37 -54.5 55.5t-44 48.5t-38.5 50.5t-25.5 48.5t-18.5 56t-5 60q0 62 21.5 116.5t64.5 99.5t115.5 70.5t167.5 25.5q74 0 139 -19t115.5 -56.5t79.5 -98t29 -138.5q0 -36 -6.5 -68.5t-20 -60.5 t-30.5 -51.5t-42 -45t-49.5 -39t-58.5 -35t-64 -31.5t-70 -31l399 -413q57 85 83.5 200t30.5 228h136q-15 -339 -173 -544l242 -261h-187l-144 162q-61 -64 -122.5 -102t-138 -57t-176.5 -19q-102 0 -187 24.5t-141 64t-95 91.5t-56.5 105.5t-17.5 107.5zM292 385 q0 -58 24 -109.5t68 -90.5t112 -61.5t151 -22.5q116 0 202.5 43.5t155.5 122.5l-444 469q-53 -17 -95 -41.5t-69.5 -50.5t-47.5 -57t-31 -57.5t-17 -56.5t-7.5 -49t-1.5 -39zM436 1152q0 -39 19.5 -83t51 -83t58 -66.5t53.5 -50.5q146 57 212 130.5t66 152.5q0 38 -13 72 t-39.5 61.5t-71.5 44t-103 16.5q-47 0 -84.5 -9t-61.5 -22t-41.5 -33t-25.5 -36.5t-13 -37.5t-6 -32t-1 -24z" />
<glyph unicode="'" horiz-adv-x="402" d="M103 1448h197l-45 -358h-107z" />
<glyph unicode="(" horiz-adv-x="872" d="M207 679q0 123 24 244.5t71.5 242t106 231t139.5 241.5l118 2q-312 -517 -312 -961q0 -36 4.5 -84.5t23 -136t48 -181.5t85 -223t128.5 -259l-101 -2q-93 141 -160.5 274t-104.5 244t-53.5 200.5t-16.5 167.5z" />
<glyph unicode=")" horiz-adv-x="872" d="M207 1640l118 -2q82 -130 140 -241.5t105.5 -231.5t71.5 -241.5t24 -244.5q0 -78 -16.5 -167.5t-53.5 -200.5t-104.5 -244t-160.5 -274l-102 2q74 130 129.5 259t85 223t47.5 181.5t23 136t5 84.5q0 444 -312 961z" />
<glyph unicode="*" horiz-adv-x="1040" d="M166 933l250 135v6l-250 134l57 101l243 -149l4 5l-8 283h117l-8 -283l4 -5l242 149l58 -101l-251 -134v-6l251 -135l-58 -104l-242 152l-6 -2l8 -286h-113l8 286l-6 2l-243 -152z" />
<glyph unicode="+" horiz-adv-x="1563" d="M144 681v115h580v580h115v-580h580v-115h-580v-580h-115v580h-580z" />
<glyph unicode="," horiz-adv-x="647" d="M176 -267l114 451h182l-154 -451h-142z" />
<glyph unicode="-" horiz-adv-x="868" d="M207 497v109h455v-109h-455z" />
<glyph unicode="." horiz-adv-x="582" d="M207 0v178h170v-178h-170z" />
<glyph unicode="/" horiz-adv-x="1131" d="M103 -488l834 1973l91 -37l-833 -1973z" />
<glyph unicode="0" d="M148 724q0 77 3.5 135t13 128t30.5 134t53 120q132 223 387 223t387 -223q26 -45 45 -98t29.5 -100.5t16 -106.5t7 -104.5t1.5 -107.5q0 -78 -3 -135t-12 -127.5t-30 -134t-54 -120.5q-132 -223 -387 -223t-387 223q-32 57 -53 120.5t-30.5 133.5t-13 128t-3.5 135z M296 724q0 -322 70 -455q84 -168 269 -168q92 0 158.5 40.5t110.5 127.5q71 135 71 455t-71 455q-44 87 -110.5 127t-158.5 40q-185 0 -269 -167q-70 -133 -70 -455z" />
<glyph unicode="1" d="M320 1186l327 262h127v-1448h-137v1289l-242 -199z" />
<glyph unicode="2" d="M199 0v126q45 50 136 149.5t137 148.5q144 154 171 186q48 54 82 99t72 108t58 133t20 142q0 135 -91 201q-74 53 -205 53q-172 0 -318 -82l-26 118q166 82 355 82q204 0 312 -86q54 -43 87 -113t33 -158q0 -71 -20.5 -148.5t-54.5 -141.5q-28 -55 -91 -139t-112 -141 q-45 -54 -145 -162.5t-146 -153.5l-104 -101v-4l133 2h590v-118h-873z" />
<glyph unicode="3" d="M164 49l20 127q155 -75 321 -75q105 0 188 27t132 73q83 79 83 206q0 132 -87 207q-30 26 -71 44t-83 26.5t-83 8.5h-213v118h215q65 0 127.5 24.5t105.5 66.5q77 77 77 178q0 126 -89 199q-86 67 -240 67q-180 0 -334 -71l-12 125q168 64 356 64q233 0 362 -124 q97 -97 97 -231t-74 -230q-29 -36 -78.5 -70.5t-119.5 -53.5v-3q48 -9 97.5 -33t85.5 -57q107 -100 107 -261q0 -175 -121 -285q-146 -132 -418 -132q-182 0 -351 65z" />
<glyph unicode="4" d="M122 345v125l658 978h182v-984h221v-119h-221v-345h-137v345h-703zM255 466l2 -4l109 2h459v732l4 128h-6l-68 -118l-437 -652z" />
<glyph unicode="5" d="M223 35v135q164 -69 325 -69q200 0 298 120q74 87 74 227q0 158 -99 239q-60 50 -140.5 67.5t-183.5 17.5q-146 0 -272 -38v714h774v-118h-637v-461q103 21 203 21q199 0 327 -89q176 -123 176 -345q0 -96 -33 -178t-90 -142q-145 -152 -418 -152q-146 0 -304 51z" />
<glyph unicode="6" d="M172 707q0 67 4.5 125.5t18 131t42 144t71.5 133.5q34 49 74.5 86.5t99.5 70t140.5 49.5t182.5 17q102 0 245 -31l-12 -122q-109 35 -258 35q-117 0 -201.5 -30t-150.5 -114q-33 -42 -58 -95t-37 -95t-20 -100t-9.5 -84t-3.5 -73l-2 -46h2q22 38 50 71t69.5 65t100 50.5 t125.5 18.5q106 0 200.5 -37t155.5 -105q48 -55 78 -137.5t30 -188.5q0 -192 -114 -324q-44 -51 -99.5 -82.5t-113.5 -43.5t-129 -12q-165 0 -278 83q-44 32 -77.5 72t-55.5 89t-36 99.5t-21.5 115.5t-10 125t-2.5 139zM325 448q0 -156 85 -249q89 -98 233 -98t234 98 q85 93 85 249q0 158 -85 251q-89 97 -234 97t-233 -97q-85 -93 -85 -251z" />
<glyph unicode="7" d="M190 1330v118h890v-124l-559 -1324h-155l569 1330h-745z" />
<glyph unicode="8" d="M146 366q0 159 121 261q98 82 232 117v2q-26 11 -53.5 25.5t-55.5 32t-53.5 38.5t-44.5 41q-91 98 -91 234q0 40 11 79.5t40.5 86t76.5 85.5q120 96 293 96q60 0 108 -5t104.5 -24.5t102.5 -52.5q71 -52 102 -116.5t31 -148.5q0 -138 -89 -234q-36 -39 -94.5 -77 t-112.5 -62v-2q70 -21 140 -56.5t110 -73.5q56 -51 78.5 -114.5t22.5 -141.5q0 -158 -118 -261q-126 -111 -360 -111q-231 0 -368 115q-73 62 -103 132t-30 135zM294 369q0 -122 101 -195q99 -73 250 -73q149 0 241 71q93 75 93 179q0 131 -108 212q-18 13 -43 28t-52 28 t-56 25.5t-57 22.5t-53 18q-49 -14 -92 -32.5t-85 -46t-72 -61t-48.5 -79t-18.5 -97.5zM347 1117q0 -125 81 -197q23 -21 66 -47t83 -45t72 -32q52 22 115 63.5t97 79.5q61 72 61 178q0 102 -70 164q-76 65 -225 65q-128 0 -205 -71q-75 -67 -75 -158z" />
<glyph unicode="9" d="M160 995q0 201 115 329q127 140 343 140q64 0 122 -12.5t98 -31t75 -44t55 -46.5t37 -43q35 -49 57 -108.5t31.5 -129.5t12.5 -125.5t3 -133.5q0 -44 -0.5 -69.5t-4.5 -87t-11 -106t-22.5 -108.5t-37 -113t-56 -102t-77.5 -92q-142 -128 -383 -128q-143 0 -288 34l9 120 q71 -22 137.5 -29.5t149.5 -7.5q102 0 183.5 33t145.5 112q119 150 125 420l2 74h-6q-26 -42 -56.5 -76t-61.5 -55.5t-62 -36.5t-61.5 -22.5t-55 -11t-47.5 -3.5q-107 0 -202 35t-156 103q-54 59 -83.5 143.5t-29.5 178.5zM306 995q0 -155 89 -249q49 -51 106.5 -72 t129.5 -21q140 0 232 99q90 96 90 253q0 60 -26.5 128t-72.5 118q-84 95 -236 95q-70 0 -130.5 -28t-100.5 -73q-81 -87 -81 -250z" />
<glyph unicode=":" horiz-adv-x="582" d="M207 0v178h170v-178h-170zM207 883v179h170v-179h-170z" />
<glyph unicode=";" horiz-adv-x="647" d="M176 -267l114 451h182l-154 -451h-142zM273 883v179h169v-179h-169z" />
<glyph unicode="&#x3c;" horiz-adv-x="1338" d="M116 730l1055 666v-117l-861 -549l861 -548v-118z" />
<glyph unicode="=" horiz-adv-x="1563" d="M144 492v116h1275v-116h-1275zM144 869v116h1275v-116h-1275z" />
<glyph unicode="&#x3e;" horiz-adv-x="1338" d="M168 64l1054 666l-1054 666v-117l860 -549l-860 -548v-118z" />
<glyph unicode="?" horiz-adv-x="920" d="M103 1293v128q126 43 268 43q210 0 328 -91.5t118 -253.5q0 -110 -43 -195t-127 -178q-14 -16 -43 -46.5t-46.5 -49.5t-40.5 -49t-36.5 -54.5t-23 -57t-9.5 -65.5v-62h-117v62q0 43 10.5 83t23.5 69.5t39 66t45 58.5t53.5 61t51.5 59q117 137 117 298q0 40 -11 73 t-30 55.5t-41.5 40t-50 27.5t-51 17t-49 10t-39.5 3.5t-26 0.5q-152 0 -270 -53zM304 0v178h170v-178h-170z" />
<glyph unicode="@" horiz-adv-x="1660" d="M103 687q0 123 34 239t100 213.5t156 170.5t209.5 113.5t253.5 40.5q152 0 280.5 -43.5t222 -124t146 -202t52.5 -269.5q0 -102 -23.5 -190.5t-63.5 -151t-92 -107t-109.5 -65.5t-116.5 -21q-79 0 -125 54t-32 130h-4q-50 -78 -126.5 -131t-157.5 -53q-55 0 -105 17 t-92.5 51t-68 92.5t-25.5 133.5q0 119 36 223.5t96.5 177.5t141 114.5t166.5 41.5q51 0 93.5 -18t73.5 -52.5t49 -81.5l24 138h104l-108 -620q-25 -136 85 -136q54 0 107.5 31.5t97 88.5t70.5 145t27 191q0 130 -48.5 237.5t-132.5 179t-197 111t-243 39.5q-95 0 -190 -28 t-182.5 -86.5t-155 -140.5t-108 -199t-40.5 -253q0 -79 15.5 -152t45 -136t72 -117t97.5 -96t119.5 -71.5t140 -45t157.5 -15.5q113 0 200 16t183 52v-79q-104 -34 -180 -50t-174 -16q-56 0 -118.5 8.5t-137.5 31t-144 56.5t-134.5 90.5t-113.5 128t-77.5 173.5t-29.5 222z M525 588q0 -47 12.5 -83.5t32.5 -59.5t46.5 -38t52.5 -20.5t53 -5.5q25 0 52.5 7.5t57.5 23t59 42.5t55 62.5t47 86t33 109.5q8 43 8 132q0 53 -17 94.5t-45 66t-61 37t-69 12.5q-55 0 -110.5 -31.5t-102 -89t-75.5 -148t-29 -197.5z" />
<glyph unicode="A" horiz-adv-x="1389" d="M31 0l575 1448h178l575 -1448h-147l-160 399h-715l-159 -399h-147zM383 517h624l-263 660l-47 136h-4l-48 -136z" />
<glyph unicode="B" horiz-adv-x="1192" d="M207 0v1448h387q110 0 193 -28.5t132.5 -80t74 -115.5t24.5 -140q0 -54 -13 -101t-41.5 -90t-78 -78t-117.5 -57v-8q130 -25 210.5 -119.5t80.5 -223.5q0 -73 -17 -133t-48.5 -100.5t-67 -72t-81.5 -49.5t-82 -29.5t-79 -16t-62.5 -5.5t-40.5 -1h-374zM343 118h220 q349 0 349 287q0 132 -93 208t-242 76h-234v-571zM343 807h232q140 0 218 76.5t78 198.5q0 51 -15.5 93t-42 70.5t-63.5 48t-79.5 28t-91.5 8.5h-236v-523z" />
<glyph unicode="C" horiz-adv-x="1263" d="M114 701q0 119 25.5 227.5t83 207t142 171t210.5 115t279 42.5q188 0 334 -55l-13 -124q-158 61 -333 61q-133 0 -243.5 -50t-184 -137t-113.5 -205.5t-40 -254.5t45 -249.5t122 -189t180.5 -117.5t220.5 -42q204 0 373 69v-131q-173 -55 -363 -55q-146 0 -267.5 39.5 t-205 107.5t-141.5 160t-84.5 195t-26.5 215z" />
<glyph unicode="D" horiz-adv-x="1423" d="M207 0v1448h354q52 0 95 -2.5t125 -17.5t146 -41.5t139 -81t125 -129t84 -193t34 -265.5q0 -163 -51 -296.5t-146.5 -227t-236 -144t-314.5 -50.5h-354zM343 118h203q106 0 197.5 22t169 69.5t132.5 117.5t86.5 171.5t31.5 225.5q0 606 -617 606h-203v-1212z" />
<glyph unicode="E" horiz-adv-x="1052" d="M207 0v1448h703v-118h-567v-523h540v-118h-540v-571h606v-118h-742z" />
<glyph unicode="F" horiz-adv-x="981" d="M207 0v1448h693v-118h-557v-523h526v-118h-526v-689h-136z" />
<glyph unicode="G" horiz-adv-x="1470" d="M114 724q0 226 93 393.5t266.5 257t407.5 89.5q181 0 374 -78l-20 -129q-181 89 -354 89q-105 0 -197.5 -25t-170 -76t-134 -124.5t-87.5 -174.5t-31 -222q0 -132 41.5 -245.5t119.5 -197.5t196 -132t263 -48q144 0 288 51v487h-352v119h488v-694q-209 -80 -424 -80 q-129 0 -244.5 31t-211 93.5t-165 150t-108 207t-38.5 258.5z" />
<glyph unicode="H" horiz-adv-x="1439" d="M207 0v1448h136v-639h753v639h137v-1448h-137v691h-753v-691h-136z" />
<glyph unicode="I" horiz-adv-x="549" d="M207 0v1448h136v-1448h-136z" />
<glyph unicode="J" horiz-adv-x="725" d="M31 4l12 120q59 -23 139 -23q201 0 201 261v1086h136v-1101q0 -58 -9.5 -107.5t-24.5 -84.5t-38.5 -63.5t-45.5 -46t-51 -30t-49.5 -18.5t-47.5 -9t-38.5 -3.5t-28.5 -0.5h-2q-79 0 -153 20z" />
<glyph unicode="K" horiz-adv-x="1306" d="M207 0v1448h136v-585v-83h2l50 51l619 617h174l-704 -684l782 -764h-192l-693 693l-36 39l-2 -2v-68v-662h-136z" />
<glyph unicode="L" horiz-adv-x="975" d="M207 0v1448h136v-1330h592v-118h-728z" />
<glyph unicode="M" horiz-adv-x="1935" d="M207 0v1448h215l482 -1126l60 -192h9l59 192l482 1126h215v-1448h-136v1121l4 197h-8l-71 -191l-480 -1127h-140l-480 1127l-71 191h-8l4 -197v-1121h-136z" />
<glyph unicode="N" horiz-adv-x="1494" d="M207 0v1448h176l705 -1171l64 -133h4l-4 168v1136h137v-1448h-176l-695 1148l-77 155h-6l8 -168v-1135h-136z" />
<glyph unicode="O" horiz-adv-x="1538" d="M114 722q0 118 25.5 226.5t78.5 203t129.5 164t184.5 109t237.5 39.5t238 -39.5t184.5 -109t129.5 -164t78.5 -203t25 -226.5q0 -175 -50.5 -316t-139 -232.5t-207.5 -140.5t-258 -49t-258.5 49t-208 140.5t-139 232.5t-50.5 316zM261 722q0 -126 28.5 -230.5t77.5 -176 t114.5 -120.5t138 -71.5t150.5 -22.5q64 0 125 16t118.5 48t105.5 84t84 119t56 157.5t20 196.5q0 126 -29 231t-78 177t-114.5 121.5t-138 72t-150 22.5t-150 -22.5t-138 -72t-114.5 -121.5t-77.5 -177t-28.5 -231z" />
<glyph unicode="P" horiz-adv-x="1099" d="M207 0v1448h377q132 0 231 -52.5t151 -147t52 -218.5q0 -188 -116.5 -303t-317.5 -115h-241v-612h-136zM343 730h214q22 0 42.5 1.5t53.5 8.5t60.5 18.5t58 34t51 53t34.5 78t14 106.5q0 61 -16 110.5t-39.5 80t-57.5 53t-62 33t-61.5 16.5t-48.5 6.5t-29 0.5h-214v-600z " />
<glyph unicode="Q" horiz-adv-x="1538" d="M114 722q0 118 25.5 226.5t78.5 203t129.5 164t184.5 109t238 39.5q107 0 200.5 -27.5t165 -78t127 -119.5t91 -152t53.5 -175t18 -190q0 -46 -4.5 -94t-16.5 -107.5t-31 -115t-50.5 -113t-71.5 -105.5t-98 -88.5t-127 -65.5l335 -304h-190l-292 263q-50 -8 -109 -8 q-139 0 -258.5 49t-208 140.5t-139 232.5t-50.5 316zM261 722q0 -126 28.5 -230.5t77.5 -176t114.5 -120.5t138 -71.5t150.5 -22.5q64 0 125 16t118.5 48t105.5 84t84 119t56 157.5t20 196.5q0 126 -29 231t-78 177t-114.5 121.5t-138 72t-150 22.5t-150 -22.5t-138 -72 t-114.5 -121.5t-77.5 -177t-28.5 -231z" />
<glyph unicode="R" horiz-adv-x="1240" d="M207 0v1448h372q77 0 141.5 -13.5t109.5 -36t79.5 -54.5t55.5 -66t34 -73.5t18 -74t5 -71.5q0 -131 -89 -227t-224 -110v-4q27 -3 49 -14t36 -22.5t28 -33t20.5 -35t18.5 -37.5q4 -9 6 -13l250 -563h-151l-238 535q-11 25 -20 41t-26 35.5t-36.5 30.5t-50.5 19t-70 8 h-182v-669h-136zM343 786h201q95 0 171.5 37.5t118 99t41.5 134.5q0 42 -8.5 79.5t-29.5 73.5t-52.5 62t-81.5 42t-113 16h-247v-544z" />
<glyph unicode="S" horiz-adv-x="1025" d="M103 47l15 135q75 -36 163.5 -58.5t158.5 -22.5q44 0 89 8.5t90 28t79.5 47.5t56 72t21.5 97q0 29 -6 56t-14 49t-24.5 44.5t-30 38.5t-38 35t-41 30.5t-47 29.5t-48 27t-51.5 27q-6 4 -10 6t-9.5 5t-10 5t-14.5 7q-32 18 -49 27t-48.5 28t-49.5 32t-44.5 34.5t-42 40.5 t-33.5 45.5t-28 53.5t-16.5 60.5t-6.5 69.5q0 52 11.5 99t42.5 96t79.5 84.5t129 57.5t184.5 22q159 0 314 -51l-19 -128q-143 61 -295 61q-77 0 -134 -17t-88 -42t-49.5 -60t-23.5 -63t-5 -59q0 -30 7.5 -56.5t17.5 -46.5t31.5 -41.5t38 -35.5t50 -34.5t53.5 -31.5t62 -34 q9 -4 14 -7t13 -7t15 -8q48 -26 78.5 -44t69 -42.5t62.5 -44.5t51 -46.5t42.5 -53t29.5 -59t20 -70t6 -79.5q0 -60 -16.5 -114t-54 -103t-92 -85t-136.5 -57t-183 -21q-176 0 -337 63z" />
<glyph unicode="T" horiz-adv-x="1066" d="M31 1330v118h1005v-118h-434v-1330h-136v1330h-435z" />
<glyph unicode="U" horiz-adv-x="1472" d="M207 482v966h136v-962q0 -63 13.5 -116.5t36.5 -92t54.5 -69.5t66.5 -50.5t74 -32.5t75.5 -18.5t72.5 -5.5q52 0 103.5 10.5t105 38.5t93.5 69.5t65.5 110.5t25.5 156v962h137v-966q0 -229 -144.5 -363.5t-385.5 -134.5t-385 134.5t-144 363.5z" />
<glyph unicode="V" horiz-adv-x="1346" d="M41 1448h151l453 -1150l44 -168h4l51 168l425 1150h136l-537 -1448h-154z" />
<glyph unicode="W" horiz-adv-x="1999" d="M41 1448h149l345 -1171l38 -159h4l33 161l325 1169h149l345 -1171l38 -159h4l33 161l324 1169h130l-405 -1448h-171l-340 1101l-43 160h-6l-42 -163l-291 -1098h-172z" />
<glyph unicode="X" horiz-adv-x="1329" d="M41 0l534 768l-502 680h169l372 -524l46 -68h2l47 68l371 524h157l-491 -680l543 -768h-170l-375 531l-84 140h-5l-86 -146l-364 -525h-164z" />
<glyph unicode="Y" horiz-adv-x="1287" d="M20 1448h160l404 -641l49 -85l64 99l404 627h167l-569 -844v-604h-136v604z" />
<glyph unicode="Z" horiz-adv-x="1161" d="M103 0v128l691 1064l92 138l-3 2l-163 -2h-600v118h908v-139l-677 -1050l-92 -139l2 -4l138 2h660v-118h-956z" />
<glyph unicode="[" horiz-adv-x="681" d="M207 -453v1901h372v-118h-228v-1665h228v-118h-372z" />
<glyph unicode="\" horiz-adv-x="1255" d="M166 1448l91 37l833 -1973l-91 -37z" />
<glyph unicode="]" horiz-adv-x="681" d="M103 -335h228v1665h-228v118h373v-1901h-373v118z" />
<glyph unicode="^" horiz-adv-x="1091" d="M116 896l430 581l431 -581h-114l-317 426l-317 -426h-113z" />
<glyph unicode="_" horiz-adv-x="1457" d="M166 -354h1200v-99h-1200v99z" />
<glyph unicode="`" horiz-adv-x="709" d="M166 1563h194l184 -274h-106z" />
<glyph unicode="a" horiz-adv-x="1070" d="M93 284q0 56 14 103.5t37 82.5t59 62.5t72 46t84 31.5t88 20t90.5 11.5t85.5 5t78 0.5h69v38q0 23 -1 39.5t-5.5 48.5t-13.5 55t-27 51t-43 46t-65 30.5t-90 12.5q-171 0 -316 -80v123q150 67 316 67q375 0 375 -395v-452l6 -231h-116v180h-4q-107 -196 -346 -196 q-83 0 -150 23.5t-109.5 65t-65 95.5t-22.5 116zM229 292q0 -86 59.5 -142.5t149.5 -56.5q153 0 242.5 98t89.5 271v75h-119q-39 0 -74 -1.5t-73.5 -6.5t-71.5 -13.5t-64.5 -21t-56 -31.5t-43.5 -43t-29 -56.5t-10 -71.5z" />
<glyph unicode="b" horiz-adv-x="1174" d="M166 0l8 205v1372h130v-706q112 207 320 207q60 0 116 -13.5t107.5 -41t94 -72.5t74 -104.5t49 -140.5t17.5 -177t-17.5 -177t-48.5 -140t-73.5 -103.5t-94 -71.5t-107.5 -40t-117 -13q-111 0 -196 65t-132 170h-6l-2 -219h-122zM304 529q0 -95 21.5 -172.5t55 -125.5 t77.5 -80t85 -45t81 -13t81.5 13t85.5 45t77.5 80t55 125.5t21.5 172.5q0 97 -21.5 175t-55 126t-77.5 80t-85.5 45t-81.5 13q-33 0 -67 -9.5t-71 -29t-69 -54.5t-57.5 -81.5t-40.5 -115t-15 -149.5z" />
<glyph unicode="c" horiz-adv-x="951" d="M93 529q0 85 20.5 164.5t64 149.5t105 122t150.5 82.5t194 30.5q127 0 254 -42l-6 -116q-126 48 -246 48q-121 0 -212 -56t-139.5 -155t-48.5 -228q0 -109 33.5 -194.5t92 -137t131.5 -78t157 -26.5q120 0 234 43l13 -111q-108 -41 -247 -41q-169 0 -294.5 69t-190.5 192 t-65 284z" />
<glyph unicode="d" horiz-adv-x="1174" d="M93 529q0 114 25 207t68 155.5t102 105t124.5 62t137.5 19.5q203 0 321 -207v706h130v-1372l8 -205h-121l-2 219h-7q-21 -47 -50 -87t-69.5 -74.5t-94 -54t-115.5 -19.5q-73 0 -138.5 18.5t-124.5 60t-101.5 103.5t-67.5 155t-25 208zM229 529q0 -95 22 -172.5 t55.5 -125.5t77.5 -80t85.5 -45t81 -13t81 13t85 45t77 80t55.5 125.5t22 172.5q0 97 -22 175t-55.5 126t-77 80t-85 45t-81.5 13t-81 -13t-85 -45t-77.5 -80t-55.5 -126t-22 -175z" />
<glyph unicode="e" horiz-adv-x="1050" d="M83 548q0 123 34.5 223.5t95.5 167t146 103t185 36.5q424 0 424 -545v-41h-749q0 -31 3 -63.5t13 -72.5t26 -76t44 -71t63.5 -60t87.5 -40.5t115 -15.5q182 0 317 69v-121q-136 -57 -319 -57q-229 0 -357.5 147t-128.5 417zM219 602h612v19q-1 15 -1 29q-2 24 -7.5 61.5 t-16.5 70.5t-33 68t-51 60t-75 41.5t-103 16.5q-62 0 -115.5 -21t-91 -56.5t-64 -83t-40 -99.5t-14.5 -106z" />
<glyph unicode="f" horiz-adv-x="698" d="M25 951v111h221v217q0 74 20 132.5t56.5 95.5t86 56.5t110.5 19.5t126 -22v-107q-60 19 -116 19q-31 0 -56.5 -8.5t-41 -20t-26.5 -30.5t-16.5 -33.5t-8.5 -36t-3 -31v-24.5v-227h250v-111h-250v-951h-131v951h-221z" />
<glyph unicode="g" horiz-adv-x="1174" d="M93 531q0 115 25 208t67.5 155.5t101 104.5t124.5 60.5t139 18.5q76 0 141 -32t111 -83.5t77 -120.5h7l2 220h121l-8 -206v-854q0 -26 -1.5 -48.5t-7 -59t-15.5 -67.5t-29.5 -69t-45.5 -68t-66 -59.5t-90 -49.5t-118.5 -32.5t-149.5 -12.5q-152 0 -286 59v128 q160 -77 311 -77q112 0 194.5 42t128 125.5t45.5 200.5v176q-112 -206 -321 -206q-72 0 -137.5 18.5t-124.5 61t-102 105t-68 155.5t-25 207zM229 531q0 -96 22 -174t55.5 -126t77.5 -80.5t85 -45t81 -12.5t81.5 12.5t85 45t77 80.5t55.5 126t22 174q0 81 -15 148t-41 113.5 t-58 81.5t-68.5 55t-71 29.5t-67 9.5t-67 -9.5t-71.5 -29.5t-69 -55t-58 -81t-41 -114t-15 -148z" />
<glyph unicode="h" horiz-adv-x="1164" d="M166 0v1577h130v-503l-10 -232h4q42 105 131 170.5t208 65.5q71 0 127.5 -15.5t94.5 -39.5t66 -60t43.5 -71.5t24.5 -80t11.5 -78.5t2.5 -73v-660h-130v653v3q0 38 -1 58.5t-5.5 58t-14 60t-28.5 51.5t-46 45t-69.5 27.5t-96.5 11.5q-83 0 -154.5 -46t-114.5 -127 t-43 -177v-618h-130z" />
<glyph unicode="i" horiz-adv-x="472" d="M166 1366v165h142v-165h-142zM172 0v1062h130v-1062h-130z" />
<glyph unicode="j" horiz-adv-x="460" d="M-62 -329q40 -12 99 -12q16 0 29 2t29 7.5t27.5 18t22 31t16 48.5t5.5 68v1228h130v-1216q0 -28 -1.5 -51t-7 -55t-15 -57t-27 -51t-42 -43t-61.5 -28t-82 -11q-66 0 -122 16v105zM166 1370v165h130v-165h-130z" />
<glyph unicode="k" horiz-adv-x="1052" d="M166 0v1577h130v-983h10l482 468h169l-523 -491l577 -571h-184l-521 521h-10v-521h-130z" />
<glyph unicode="l" horiz-adv-x="460" d="M166 0v1577h130v-1577h-130z" />
<glyph unicode="m" horiz-adv-x="1770" d="M166 1062h128v-208h4q39 99 124 161.5t198 62.5q125 0 201 -62t99 -162h2q30 66 78 115.5t117.5 79t150.5 29.5q54 0 100 -10.5t78.5 -26t58.5 -40.5t42.5 -48t28 -54.5t17 -54t8.5 -53t3.5 -44.5t0.5 -35v-5v-707h-130v701q0 24 -1.5 44t-6.5 49t-13.5 51.5t-25.5 46.5 t-39.5 39.5t-57 26t-78.5 10.5q-72 0 -130 -29t-94.5 -78t-56 -111.5t-19.5 -131.5v-618h-130v701q0 18 -0.5 32.5t-5 44t-12.5 52t-24.5 50t-39.5 45.5t-59.5 30.5t-81.5 12.5q-85 0 -154 -49t-106.5 -128.5t-37.5 -172.5v-618h-130v861z" />
<glyph unicode="n" horiz-adv-x="1170" d="M166 1062h116v-220h4q20 48 50.5 88.5t73 74.5t100 53.5t123.5 19.5q71 0 128 -15t95 -39t66.5 -60t44 -71t24.5 -79.5t11.5 -79t2.5 -74.5v-660h-130v653v3q0 39 -1 59.5t-5.5 58.5t-14 60.5t-28.5 51t-46 44t-69.5 27t-96.5 11.5q-88 0 -160 -48.5t-112 -128.5 t-40 -173v-618h-130v817z" />
<glyph unicode="o" horiz-adv-x="1166" d="M93 529q0 164 60.5 288.5t172 192.5t258 68t258 -68t172 -192.5t60.5 -288.5q0 -163 -61 -287t-172.5 -191t-257 -67t-257 67t-172.5 191t-61 287zM229 529q0 -63 13 -124t41 -118t68.5 -100t100.5 -68.5t132 -25.5q60 0 112 18t90 49.5t67.5 73.5t47.5 91t27 100.5 t9 103.5q0 64 -12.5 125.5t-40.5 118.5t-68 100t-100 69t-132 26q-61 0 -113 -18t-90 -50t-67.5 -74t-47.5 -91.5t-27.5 -101t-9.5 -104.5z" />
<glyph unicode="p" horiz-adv-x="1174" d="M166 1062h124v-220h6q12 33 27.5 62.5t43.5 62.5t62 56.5t85 39t110 15.5q218 0 338 -146t120 -401q0 -113 -25.5 -205.5t-68 -155t-101.5 -105.5t-124.5 -62t-138.5 -19q-104 0 -186.5 55.5t-131.5 150.5h-6l4 -101v-542h-130v1309zM304 531q0 -70 11.5 -130t30.5 -104 t45 -79.5t55 -58.5t60.5 -38t60.5 -21.5t57 -6.5q40 0 81.5 12.5t85.5 45t77.5 80.5t55 126t21.5 174t-21.5 173t-55 125t-77.5 80.5t-85.5 45.5t-81.5 13t-81 -13t-85 -45.5t-77.5 -80.5t-55 -125t-21.5 -173z" />
<glyph unicode="q" horiz-adv-x="1174" d="M93 531q0 115 25 208t67.5 155.5t101 104.5t124.5 60.5t139 18.5q62 0 115.5 -20t94 -54t69.5 -74.5t50 -87.5h7l2 220h121l-8 -206v-1309h-130v643q-22 -38 -48 -70t-65 -65t-92.5 -52t-115.5 -19q-72 0 -137.5 19t-124.5 61.5t-102 105t-68 155t-25 206.5zM229 531 q0 -96 22 -174t55.5 -126t77.5 -80.5t85 -45t81 -12.5t81.5 12.5t85 45t77 80.5t55.5 126t22 174q0 81 -15 148t-41 113.5t-58 81.5t-68.5 55t-71 29.5t-67 9.5t-67 -9.5t-71.5 -29.5t-69 -55t-58 -81t-41 -114t-15 -148z" />
<glyph unicode="r" horiz-adv-x="727" d="M166 1062h124v-229h2q10 46 29.5 86.5t49.5 77.5t76 59t101 22q59 0 118 -19v-124q-54 20 -114 20q-50 0 -92 -22t-70 -58t-48 -82t-29 -92.5t-9 -90.5v-610h-130v867z" />
<glyph unicode="s" horiz-adv-x="866" d="M103 31l9 125q134 -63 275 -63q110 0 175 51t65 142q0 27 -5.5 49.5t-13 39.5t-24.5 33.5t-30 26.5t-40.5 24.5t-44.5 22t-52 22.5q-17 7 -26 11q-35 16 -58.5 27t-55 28.5t-52 33.5t-42.5 39.5t-35 48.5t-21.5 57.5t-8.5 69.5q0 120 99 189.5t257 69.5q133 0 252 -56 l-8 -104q-117 50 -250 50q-42 0 -78 -7t-70 -22.5t-54 -46t-20 -73.5q0 -28 5 -49t20 -40.5t32 -33.5t52.5 -32.5t69.5 -34t94 -39.5q37 -16 65 -31t64 -42t59.5 -57.5t40 -75.5t16.5 -98q0 -45 -13 -87t-42 -81.5t-72 -69t-108.5 -47t-145.5 -17.5q-147 0 -280 47z" />
<glyph unicode="t" horiz-adv-x="690" d="M16 951v111h217v264l131 48v-312h252v-111h-252v-651q0 -67 7 -108.5t24.5 -63t38.5 -28.5t56 -7q79 0 132 23v-110q-63 -22 -146 -22q-49 0 -87.5 11.5t-63 28.5t-43 44.5t-27.5 52t-14.5 59t-6.5 57.5t-1 55v659h-217z" />
<glyph unicode="u" horiz-adv-x="1153" d="M166 375v687h130v-698q0 -23 1.5 -43.5t7 -49t14.5 -52t27 -48t41.5 -41t59.5 -27t80 -10.5q66 0 125 26.5t103 72.5t69.5 112.5t25.5 141.5v616h131v-820l8 -242h-122v211h-2q-41 -104 -130.5 -165.5t-207.5 -61.5q-33 0 -64 3.5t-68.5 14.5t-69 28.5t-61.5 48t-51.5 70 t-34 97.5t-12.5 129z" />
<glyph unicode="v" horiz-adv-x="969" d="M41 1062h135l286 -867l20 -83h6l21 83l285 867h135l-366 -1062h-156z" />
<glyph unicode="w" horiz-adv-x="1635" d="M41 1062h133l236 -810l32 -142h6l34 142l254 810h164l254 -810l34 -142h6l32 142l236 810h133l-318 -1062h-164l-269 852l-23 99h-6l-23 -99l-269 -852h-163z" />
<glyph unicode="x" horiz-adv-x="1029" d="M62 0l368 567l-343 495h165l201 -310l58 -99h2l58 102l187 307h152l-324 -495l382 -567h-169l-236 383l-52 95h-2l-53 -95l-243 -383h-151z" />
<glyph unicode="y" horiz-adv-x="1013" d="M62 1062h139l279 -810l33 -106h2l33 104l269 812h134l-452 -1302q-18 -50 -38.5 -86.5t-50.5 -67t-72 -46.5t-96 -16q-41 0 -116 20l12 116q8 -2 23.5 -5.5t27 -6.5t23.5 -5t17 -2q64 0 103.5 42t66.5 123l45 139z" />
<glyph unicode="z" horiz-adv-x="979" d="M93 0v107l546 737l85 107h-621v111h758v-125l-543 -726l-83 -101h653v-110h-795z" />
<glyph unicode="{" horiz-adv-x="711" d="M103 515v89q38 5 68 17.5t50.5 29t35.5 40.5t23 46.5t12.5 53.5t6 56.5t1.5 58.5q0 48 -3 123t-3 152q0 33 2 61t9 67.5t19.5 71t36.5 66t56 59.5t81 44.5t110 26.5v-94q-39 -4 -68.5 -14.5t-48.5 -28t-31.5 -36.5t-18.5 -44t-8.5 -46t-2.5 -46q0 -52 3 -179t3 -185 q0 -32 -1.5 -56.5t-7 -59.5t-17.5 -63t-30.5 -57t-49.5 -51t-71 -36l-54 -18v-6l54 -20q40 -14 71 -36t49.5 -50.5t30.5 -56.5t17.5 -63t7 -59.5t1.5 -56.5q0 -58 -3 -185t-3 -178q0 -32 3 -57t14 -54t29.5 -49.5t52 -36t79.5 -19.5v-94q-61 7 -110 26.5t-81 44.5t-56 59.5 t-36.5 66.5t-19.5 71.5t-9 67t-2 60.5q0 78 3 153t3 122q0 34 -1.5 59t-6 56t-12.5 53.5t-23 46.5t-35.5 40.5t-50.5 29t-68 17.5z" />
<glyph unicode="|" horiz-adv-x="347" d="M116 -579v2178h115v-2178h-115z" />
<glyph unicode="}" horiz-adv-x="711" d="M103 -364q46 4 79.5 19.5t52.5 36t30 49.5t14 54t3 57q0 51 -3.5 178t-3.5 185q0 23 0.5 41.5t3.5 44t8.5 47t14 45.5t22 44.5t31.5 39.5t43 34.5t55 25.5l54 20v6l-54 18q-40 14 -71 36t-49.5 50.5t-31 57t-18 63.5t-7 60t-1.5 56q0 58 3.5 185t3.5 179q0 21 -1.5 39.5 t-6 40t-12.5 38.5t-21.5 34.5t-32 29.5t-45.5 21t-60 12v94q61 -7 110 -26.5t81 -44.5t56 -59.5t36.5 -66.5t20 -71t9.5 -67t2 -61q0 -77 -3 -152t-3 -123q0 -34 1.5 -59t6 -56t12.5 -53.5t22.5 -46.5t35 -40.5t50.5 -29t68 -17.5v-89q-38 -5 -68 -17.5t-50.5 -29t-35 -40.5 t-22.5 -46.5t-12.5 -53.5t-6 -56t-1.5 -59q0 -47 3 -122t3 -153q0 -33 -2 -61t-9.5 -67t-20 -71t-36.5 -66.5t-56 -59.5t-81 -44.5t-110 -26.5v94z" />
<glyph unicode="~" horiz-adv-x="1109" d="M166 488q76 165 217 165q75 0 196 -45q95 -41 147 -41q96 0 145 88l74 -49q-42 -82 -92 -122t-123 -40q-44 0 -73.5 6.5t-43 16.5t-31 21t-36.5 20.5t-61 16t-102 6.5q-100 0 -148 -91z" />
<glyph unicode="&#xa4;" horiz-adv-x="1654" d="M207 192l196 197q-19 21 -36.5 46.5t-38.5 68t-33.5 101.5t-12.5 125t12.5 125t33.5 101.5t38.5 68.5t36.5 47l-196 196l83 82l196 -196q21 19 46 36.5t68 39.5t102 35.5t125 13.5t125.5 -13.5t102 -35.5t68 -39.5t46.5 -36.5l197 196l82 -82l-197 -196q19 -21 36.5 -47 t39 -68.5t34.5 -101.5t13 -125t-13 -125t-34.5 -101.5t-39 -68t-36.5 -46.5l197 -197l-82 -82l-197 196q-21 -19 -46.5 -36t-68 -39t-102 -35.5t-125.5 -13.5t-125 13.5t-102 35.5t-68 39t-46 36l-196 -196zM391 730.5q0 -91.5 34.5 -175t93 -144t139.5 -96.5t169.5 -36 t169 36t139 96.5t93.5 144t35 175t-35 175t-93.5 143.5t-139 96t-169 36t-169.5 -36t-139.5 -96t-93 -143.5t-34.5 -175z" />
<glyph unicode="&#xa6;" horiz-adv-x="347" d="M116 329h115v-908h-115v908zM116 691v908h115v-908h-115z" />
<glyph unicode="&#xa7;" horiz-adv-x="1204" d="M144 563q0 251 263 357q-130 82 -130 247q0 39 9.5 76.5t29 73.5t52 66t76 53t103.5 36t132 13q129 0 294 -62l-22 -124q-61 31 -136 50t-134 19q-64 0 -114 -16t-80.5 -44t-46.5 -63.5t-16 -77.5q0 -28 7.5 -52t17 -41.5t30 -35t36 -28t45 -24.5t47.5 -21t53 -21 q8 -3 13 -5q39 -15 63.5 -25.5t61 -27.5t60.5 -31.5t54.5 -36.5t50 -43.5t40 -51t32 -61t19.5 -71t8 -84.5q0 -59 -17.5 -111t-43.5 -89t-62.5 -68t-70 -50t-69.5 -33v-2q47 -31 78 -68.5t44.5 -77t17.5 -69.5t4 -65q0 -61 -26 -117t-76 -101t-131 -71.5t-181 -26.5 q-55 0 -105.5 7.5t-89 17.5t-111.5 32l17 128q82 -33 147.5 -50.5t137.5 -17.5q62 0 111 13t78.5 33.5t48.5 48t26 52.5t7 50q0 45 -12 82t-31 62.5t-51 48t-62 36.5t-73 31q-14 6 -42 16q-50 19 -76 29.5t-73 33t-73.5 42.5t-61 52.5t-52.5 67.5t-31.5 84t-13.5 106z M284 579q0 -32 6 -60.5t15 -51t25 -43.5t30.5 -36t37.5 -30.5t41 -25t45.5 -22t45 -19t46.5 -17.5t44 -17l73 -30q221 89 221 294q0 55 -14.5 96.5t-49.5 78.5t-94.5 68.5t-149.5 62.5l-73 25q-31 -5 -61.5 -16t-65.5 -32.5t-61.5 -50.5t-43.5 -74.5t-17 -99.5z" />
<glyph unicode="&#xa8;" horiz-adv-x="926" d="M166 1366v165h142v-165h-142zM618 1366v165h144v-165h-144z" />
<glyph unicode="&#xa9;" horiz-adv-x="1857" d="M166 724q0 155 60.5 296.5t163 243.5t243.5 163t296 61t296 -61t243.5 -163t163 -243.5t60.5 -296.5t-60.5 -296t-163 -243.5t-243.5 -163t-296 -60.5t-296 60.5t-243.5 163t-163 243.5t-60.5 296zM269 724q0 -136 51.5 -258.5t139.5 -210.5t210.5 -139.5t258.5 -51.5 t258.5 51.5t210.5 139.5t139.5 210.5t51.5 258.5t-51.5 258.5t-139.5 210.5t-210.5 139.5t-258.5 51.5t-258.5 -52t-210.5 -139.5t-139.5 -210t-51.5 -258.5zM533 722q0 129 50.5 231.5t143 161t210.5 58.5q152 0 255 -36l-4 -115q-39 20 -83 30t-68 11t-77 1 q-52 0 -95.5 -14t-74.5 -38.5t-54.5 -57t-37.5 -71.5t-20.5 -79t-6.5 -82q0 -83 25 -149t67.5 -105.5t94 -60t108.5 -20.5q117 0 215 43l13 -114q-94 -41 -230 -41q-78 0 -146 21t-119.5 60.5t-89 94.5t-57 124t-19.5 147z" />
<glyph unicode="&#xab;" horiz-adv-x="1054" d="M116 635l289 429h118l-271 -429l271 -428h-118zM482 635l290 429h118l-272 -429l272 -428h-118z" />
<glyph unicode="&#xac;" horiz-adv-x="1563" d="M144 835v116h1275v-558h-122v442h-1153z" />
<glyph unicode="&#xad;" horiz-adv-x="868" d="M207 497v109h455v-109h-455z" />
<glyph unicode="&#xae;" horiz-adv-x="1940" d="M207 728q0 155 60.5 296.5t163 243.5t244 163t296 61t296 -61t243.5 -163t162.5 -243.5t60.5 -296.5t-60.5 -296t-162.5 -243.5t-243.5 -163t-296 -60.5t-296 60.5t-244 163t-163 243.5t-60.5 296zM310 728q0 -136 52 -258t140 -210t210.5 -139.5t258.5 -51.5t258 51.5 t210 139.5t139.5 210t51.5 258t-51.5 258.5t-139.5 210.5t-210 139.5t-258 51.5t-258.5 -51.5t-210.5 -139.5t-140 -210.5t-52 -258.5zM695 273v900h258q17 0 32 -1t46 -6t55.5 -13.5t54 -27t49.5 -43.5t33.5 -65t13.5 -90q0 -85 -55.5 -139.5t-137.5 -69.5v12 q31 -4 58.5 -32t43.5 -67l155 -358h-128l-151 333q-10 22 -15.5 32t-17.5 22t-30 16.5t-45 4.5h-101v-408h-118zM813 784h109q90 0 140.5 43t50.5 100q0 143 -164 143h-136v-286z" />
<glyph unicode="&#xb0;" horiz-adv-x="694" d="M116 1245.5q0 96.5 67.5 164t164 67.5t164 -67.5t67.5 -164t-67.5 -164t-164 -67.5t-164 67.5t-67.5 164zM203 1245q0 -39 19 -72.5t52.5 -52.5t72.5 -19q61 0 103 42t42 102.5t-42 102.5t-102.5 42t-102.5 -42t-42 -103z" />
<glyph unicode="&#xb1;" horiz-adv-x="1604" d="M166 87v116h1273v-116h-1273zM166 752v117h578v492h117v-492h578v-117h-578v-434h-117v434h-578z" />
<glyph unicode="&#xb4;" horiz-adv-x="709" d="M166 1289l183 274h195l-273 -274h-105z" />
<glyph unicode="&#xb6;" horiz-adv-x="1116" d="M166 1137q0 41 12.5 83.5t38.5 83.5t61.5 73t87 51.5t110.5 19.5h173v-1901h-116v1280q-77 -5 -141 13t-105 50.5t-69 75.5t-40 86t-12 85zM794 -453v1901h116v-1901h-116z" />
<glyph unicode="&#xb7;" horiz-adv-x="517" d="M85 738.5q0 72.5 50.5 123t123 50.5t123 -50.5t50.5 -123t-50.5 -123t-123 -50.5t-123 50.5t-50.5 123z" />
<glyph unicode="&#xbb;" horiz-adv-x="1054" d="M166 207l270 428l-270 429h118l289 -429l-289 -428h-118zM531 207l272 428l-272 429h118l290 -429l-290 -428h-118z" />
<glyph unicode="&#x131;" horiz-adv-x="460" d="M166 0v1062h130v-1062h-130z" />
<glyph unicode="&#x401;" horiz-adv-x="1052" d="M207 0v1448h703v-118h-567v-523h540v-118h-540v-571h606v-118h-742zM219 1581v165h143v-165h-143zM693 1581v165h142v-165h-142z" />
<glyph unicode="&#x402;" horiz-adv-x="1594" d="M31 1330v118h1028v-118h-471v-491q87 53 197.5 87t217.5 34q79 0 143.5 -17.5t107.5 -45t76 -66.5t51.5 -78t29.5 -85t14.5 -81t3.5 -72q0 -61 -3.5 -112t-15 -107t-29.5 -100t-49 -85t-72.5 -68t-101.5 -43t-134 -16q-104 0 -193 28l8 118q73 -29 170 -29q42 0 77.5 8.5 t61.5 22t47 35t35 44t24 54t15.5 58.5t8.5 63.5t4 64t1 64.5q0 28 -2.5 53.5t-10 60t-20.5 63t-37 57.5t-55.5 48.5t-79.5 32t-107 12.5q-61 0 -127.5 -14.5t-131.5 -41.5t-124 -64v-722h-138v1330h-419z" />
<glyph unicode="&#x403;" horiz-adv-x="969" d="M207 0v1448h742v-118h-606v-1330h-136zM373 1547l171 255h232l-253 -255h-150z" />
<glyph unicode="&#x404;" horiz-adv-x="1246" d="M114 701q0 68 8 134.5t30 144t56.5 145t92.5 131t132.5 109t182 72.5t236.5 27q64 0 112 -3.5t106.5 -17t117.5 -38.5l-15 -128q-77 38 -156 53.5t-175 15.5q-105 0 -195 -28.5t-155.5 -78.5t-114.5 -118.5t-76 -147t-34 -164.5h714v-118h-720q0 -89 22.5 -173t70 -160 t114.5 -133t162.5 -90.5t208.5 -33.5q199 0 363 73l4 -131q-166 -59 -364 -59q-147 0 -269 39t-206 107t-141.5 159.5t-84.5 195t-27 216.5z" />
<glyph unicode="&#x405;" horiz-adv-x="1025" d="M103 47l15 135q75 -36 163.5 -58.5t158.5 -22.5q44 0 89 8.5t90 28t79.5 47.5t56 72t21.5 97q0 29 -6 56t-14 49t-24.5 44.5t-30 38.5t-38 35t-41 30.5t-47 29.5t-48 27t-51.5 27q-6 4 -10 6t-9.5 5t-10 5t-14.5 7q-32 18 -49 27t-48.5 28t-49.5 32t-44.5 34.5t-42 40.5 t-33.5 45.5t-28 53.5t-16.5 60.5t-6.5 69.5q0 52 11.5 99t42.5 96t79.5 84.5t129 57.5t184.5 22q159 0 314 -51l-19 -128q-143 61 -295 61q-77 0 -134 -17t-88 -42t-49.5 -60t-23.5 -63t-5 -59q0 -30 7.5 -56.5t17.5 -46.5t31.5 -41.5t38 -35.5t50 -34.5t53.5 -31.5t62 -34 q9 -4 14 -7t13 -7t15 -8q48 -26 78.5 -44t69 -42.5t62.5 -44.5t51 -46.5t42.5 -53t29.5 -59t20 -70t6 -79.5q0 -60 -16.5 -114t-54 -103t-92 -85t-136.5 -57t-183 -21q-176 0 -337 63z" />
<glyph unicode="&#x406;" horiz-adv-x="549" d="M207 0v1448h136v-1448h-136z" />
<glyph unicode="&#x407;" horiz-adv-x="541" d="M31 1581v165h145v-165h-145zM203 0v1448h136v-1448h-136zM366 1581v165h145v-165h-145z" />
<glyph unicode="&#x408;" horiz-adv-x="725" d="M31 4l12 120q59 -23 139 -23q201 0 201 261v1086h136v-1101q0 -58 -9.5 -107.5t-24.5 -84.5t-38.5 -63.5t-45.5 -46t-51 -30t-49.5 -18.5t-47.5 -9t-38.5 -3.5t-28.5 -0.5h-2q-79 0 -153 20z" />
<glyph unicode="&#x409;" horiz-adv-x="2045" d="M41 -2l8 114q47 -11 83 -11q54 0 94.5 37.5t62 100t36.5 143t17.5 165.5t5 168.5t-1.5 152.5q-1 61 -1 85v495h830v-594h232h43t59 -4t73 -11t77 -22t79 -35.5t70.5 -53t60 -73.5t38.5 -98.5t15 -126.5q0 -84 -31 -161.5t-87 -137t-141.5 -95.5t-185.5 -36h-439v1330 h-556v-383q0 -358 -14 -500q-31 -306 -153 -406q-69 -57 -173 -57q-50 0 -101 14zM1175 118h260q86 0 153.5 26t107.5 69.5t60.5 97.5t20.5 115q0 60 -15 108.5t-38 80t-57 55t-66 36t-71.5 20t-66.5 9t-58 1.5h-230v-618z" />
<glyph unicode="&#x40a;" horiz-adv-x="2106" d="M207 0v1448h136v-594h755v594h137v-594h232h40.5t58.5 -4t73.5 -11t78 -22t80 -35.5t71 -53t60.5 -73.5t39.5 -98.5t15.5 -126.5q0 -84 -32 -161.5t-88 -137t-141.5 -95.5t-185.5 -36h-439v736h-755v-736h-136zM1235 118h261q86 0 153 26t107 69.5t60.5 97.5t20.5 115 q0 60 -15 108.5t-38 80t-57 55t-66 36t-71.5 20t-67 9t-58.5 1.5h-229v-618z" />
<glyph unicode="&#x40b;" horiz-adv-x="1569" d="M31 1330v118h1005v-118h-455v-491q83 50 191.5 85.5t200.5 35.5q432 0 432 -403v-557h-137v525q0 36 -1.5 59.5t-7.5 60.5t-17 62.5t-32.5 54.5t-52 47t-78 29.5t-106.5 11.5q-169 0 -392 -128v-722h-137v1330h-413z" />
<glyph unicode="&#x40c;" horiz-adv-x="1306" d="M207 0v1448h136v-585v-83h2l50 51l619 617h174l-704 -684l782 -764h-192l-693 693l-36 39l-2 -2v-68v-662h-136zM450 1547l172 255h232l-252 -255h-152z" />
<glyph unicode="&#x40e;" horiz-adv-x="1265" d="M41 1448h154l372 -769l74 -182h6l65 174l322 777h149l-512 -1219q-2 -3 -4 -8q-11 -27 -17 -41t-18 -38.5t-20.5 -37.5t-22.5 -32.5t-27.5 -30t-32 -23.5t-38 -19t-45 -10.5t-53.5 -4.5q-81 0 -147 24l6 116q48 -23 123 -23q55 0 88.5 37t69.5 127l36 86zM300 1808h124 q14 -38 41 -63.5t60 -36.5t58 -14.5t50 -3.5t50 3.5t58 14.5t60.5 36.5t40.5 63.5h124q-41 -114 -130.5 -177t-202 -63t-202.5 63t-131 177z" />
<glyph unicode="&#x40f;" horiz-adv-x="1455" d="M207 0v1448h136v-1330h770v1330h136v-1448h-453v-314h-136v314h-453z" />
<glyph unicode="&#x410;" horiz-adv-x="1389" d="M31 0l575 1448h178l575 -1448h-147l-160 399h-715l-159 -399h-147zM383 517h624l-263 660l-47 136h-4l-48 -136z" />
<glyph unicode="&#x411;" horiz-adv-x="1186" d="M207 0v1448h774v-118h-638v-515h249q68 0 127.5 -10t103 -27t80 -41.5t61 -51t43 -58t29 -60t17 -59t9 -53.5t2.5 -45q0 -195 -131 -302.5t-352 -107.5h-374zM343 118h211q73 0 131 12.5t96.5 35t66 50t42 62t20.5 66t6 66.5q0 37 -6.5 69.5t-22 66t-43 60t-66 47.5 t-95 32.5t-126.5 11.5h-214v-579z" />
<glyph unicode="&#x412;" horiz-adv-x="1192" d="M207 0v1448h387q110 0 193 -28.5t132.5 -80t74 -115.5t24.5 -140q0 -54 -13 -101t-41.5 -90t-78 -78t-117.5 -57v-8q130 -25 210.5 -119.5t80.5 -223.5q0 -73 -17 -133t-48.5 -100.5t-67 -72t-81.5 -49.5t-82 -29.5t-79 -16t-62.5 -5.5t-40.5 -1h-374zM343 118h220 q349 0 349 287q0 132 -93 208t-242 76h-234v-571zM343 807h232q140 0 218 76.5t78 198.5q0 51 -15.5 93t-42 70.5t-63.5 48t-79.5 28t-91.5 8.5h-236v-523z" />
<glyph unicode="&#x413;" horiz-adv-x="969" d="M207 0v1448h742v-118h-606v-1330h-136z" />
<glyph unicode="&#x414;" horiz-adv-x="1443" d="M41 118h123q33 50 60 100t47 93.5t35 96.5t25 92t17 97.5t10.5 95t5 103.5t2 104.5t0.5 114.5v35v398h828v-1330h167v-432h-137v314h-1046v-314h-137v432zM318 118h739v1212h-554v-296v-44q0 -84 -0.5 -126.5t-3.5 -118.5t-10 -123.5t-20 -118t-32.5 -127t-49.5 -124 t-69 -134.5z" />
<glyph unicode="&#x415;" horiz-adv-x="1052" d="M207 0v1448h703v-118h-567v-523h540v-118h-540v-571h606v-118h-742z" />
<glyph unicode="&#x416;" horiz-adv-x="1790" d="M4 0l679 770l-610 678h165l583 -660h6v660h137v-660h7l582 660h166l-610 -678l678 -770h-196l-620 732h-7v-732h-137v732h-6l-620 -732h-197z" />
<glyph unicode="&#x417;" horiz-adv-x="1050" d="M41 75l19 128q189 -102 372 -102q172 0 280.5 81t108.5 213q0 95 -43.5 162.5t-130 103.5t-209.5 36h-175v118h169q69 0 124 12t91.5 33.5t62 48t39 60.5t19.5 66t6 68q0 118 -93.5 180.5t-246.5 62.5q-160 0 -347 -80l-10 130q187 68 357 68q1 0 4 1q18 0 33.5 -0.5 t52 -3.5t67.5 -9t73.5 -18.5t75.5 -30t68.5 -45.5t58.5 -63.5t38 -85t15 -108.5q0 -128 -61.5 -217.5t-173.5 -119.5v-4q92 -18 156 -71.5t95.5 -132.5t31.5 -177q0 -82 -32 -149.5t-84.5 -112t-122.5 -75.5t-144.5 -44.5t-152.5 -13.5q-201 0 -391 91z" />
<glyph unicode="&#x418;" horiz-adv-x="1482" d="M207 0v1448h136v-1088l-8 -176h6l81 147l699 1117h156v-1448h-138v1088l9 176h-7l-71 -137l-708 -1127h-155z" />
<glyph unicode="&#x419;" horiz-adv-x="1482" d="M207 0v1448h136v-1088l-8 -176h6l79 147l701 1117h156v-1448h-138v1088l9 176h-7l-71 -137l-708 -1127h-155zM438 1713l63 79q98 -118 239 -118q143 0 241 118l61 -79q-28 -37 -62 -67t-72.5 -51t-81 -32.5t-86.5 -11.5q-87 0 -166 43t-136 119z" />
<glyph unicode="&#x41a;" horiz-adv-x="1306" d="M207 0v1448h136v-585v-83h2l50 51l619 617h174l-704 -684l782 -764h-192l-693 693l-36 39l-2 -2v-68v-662h-136z" />
<glyph unicode="&#x41b;" horiz-adv-x="1381" d="M41 -2l8 114q47 -11 83 -11q54 0 94.5 37.5t62 100t36.5 143t17.5 165.5t5 168.5t-1.5 152.5q-1 61 -1 85v495h830v-1448h-137v1330h-556v-383q0 -358 -14 -500q-31 -306 -153 -406q-69 -57 -173 -57q-50 0 -101 14z" />
<glyph unicode="&#x41c;" horiz-adv-x="1935" d="M207 0v1448h215l482 -1126l60 -192h9l59 192l482 1126h215v-1448h-136v1121l4 197h-8l-71 -191l-480 -1127h-140l-480 1127l-71 191h-8l4 -197v-1121h-136z" />
<glyph unicode="&#x41d;" horiz-adv-x="1439" d="M207 0v1448h136v-639h753v639h137v-1448h-137v691h-753v-691h-136z" />
<glyph unicode="&#x41e;" horiz-adv-x="1538" d="M114 722q0 118 25.5 226.5t78.5 203t129.5 164t184.5 109t237.5 39.5t238 -39.5t184.5 -109t129.5 -164t78.5 -203t25 -226.5q0 -175 -50.5 -316t-139 -232.5t-207.5 -140.5t-258 -49t-258.5 49t-208 140.5t-139 232.5t-50.5 316zM261 722q0 -126 28.5 -230.5t77.5 -176 t114.5 -120.5t138 -71.5t150.5 -22.5q64 0 125 16t118.5 48t105.5 84t84 119t56 157.5t20 196.5q0 126 -29 231t-78 177t-114.5 121.5t-138 72t-150 22.5t-150 -22.5t-138 -72t-114.5 -121.5t-77.5 -177t-28.5 -231z" />
<glyph unicode="&#x41f;" horiz-adv-x="1441" d="M207 0v1448h1028v-1448h-137v1330h-755v-1330h-136z" />
<glyph unicode="&#x420;" horiz-adv-x="1099" d="M207 0v1448h377q132 0 231 -52.5t151 -147t52 -218.5q0 -188 -116.5 -303t-317.5 -115h-241v-612h-136zM343 730h214q22 0 42.5 1.5t53.5 8.5t60.5 18.5t58 34t51 53t34.5 78t14 106.5q0 61 -16 110.5t-39.5 80t-57.5 53t-62 33t-61.5 16.5t-48.5 6.5t-29 0.5h-214v-600z " />
<glyph unicode="&#x421;" horiz-adv-x="1263" d="M114 701q0 119 25.5 227.5t83 207t142 171t210.5 115t279 42.5q188 0 334 -55l-13 -124q-158 61 -333 61q-133 0 -243.5 -50t-184 -137t-113.5 -205.5t-40 -254.5t45 -249.5t122 -189t180.5 -117.5t220.5 -42q204 0 373 69v-131q-173 -55 -363 -55q-146 0 -267.5 39.5 t-205 107.5t-141.5 160t-84.5 195t-26.5 215z" />
<glyph unicode="&#x422;" horiz-adv-x="1066" d="M31 1330v118h1005v-118h-434v-1330h-136v1330h-435z" />
<glyph unicode="&#x423;" horiz-adv-x="1224" d="M41 1448h154l372 -769l74 -182h6l65 174l322 777h149l-512 -1219q-2 -3 -4 -8q-11 -27 -17 -41t-18 -38.5t-20.5 -37.5t-22.5 -32.5t-27.5 -30t-32 -23.5t-38 -19t-45 -10.5t-53.5 -4.5q-81 0 -147 24l6 116q48 -23 123 -23q55 0 88.5 37t69.5 127l36 86z" />
<glyph unicode="&#x424;" horiz-adv-x="1765" d="M114 736q0 79 19 156t54.5 146.5t91 129t124.5 103t158 68.5t189 25h65v171h136v-171h65q120 0 223.5 -35.5t178 -95.5t128.5 -140t80 -171t26 -186t-26 -185.5t-80 -170.5t-128.5 -140t-178 -95t-223.5 -35h-65v-177h-136v177h-65q-119 0 -222.5 35t-178.5 95 t-128.5 140t-80 170.5t-26.5 185.5zM261 736.5q0 -119.5 36.5 -216.5t102 -160.5t155.5 -98t195 -34.5h65v1018h-65q-105 0 -195 -34t-155.5 -98t-102 -160.5t-36.5 -216zM951 227h65q106 0 195.5 34.5t155 98t102.5 160.5t37 216.5t-37 216t-102.5 160.5t-155 98t-195.5 34 h-65v-1018z" />
<glyph unicode="&#x425;" horiz-adv-x="1329" d="M41 0l534 768l-502 680h169l372 -524l46 -68h2l47 68l371 524h157l-491 -680l543 -768h-170l-375 531l-84 140h-5l-86 -146l-364 -525h-164z" />
<glyph unicode="&#x426;" horiz-adv-x="1502" d="M207 0v1448h136v-1330h770v1330h136v-1330h172v-432h-136v314h-1078z" />
<glyph unicode="&#x427;" horiz-adv-x="1310" d="M124 966v482h137v-480q0 -43 9 -78t23.5 -60.5t37.5 -45.5t44 -32.5t51 -21.5t51 -13.5t51 -6.5t44 -2.5t36 -0.5h4q130 0 274 19l82 10v712h137v-1448h-137v618l-82 -8q-194 -20 -290 -20q-90 0 -163 14.5t-121 37t-84 55.5t-55 65.5t-31 72t-15 69t-3 62.5z" />
<glyph unicode="&#x428;" horiz-adv-x="2130" d="M207 0v1448h136v-1330h654v1330h136v-1330h654v1330h137v-1448h-1717z" />
<glyph unicode="&#x429;" horiz-adv-x="2161" d="M207 0v1448h136v-1330h654v1330h136v-1330h654v1330h137v-1330h155v-432h-137v314h-1735z" />
<glyph unicode="&#x42a;" horiz-adv-x="1348" d="M41 1330v118h476v-594h231h41.5t58.5 -4t73.5 -11t77.5 -22t80 -35.5t71.5 -53t60.5 -73.5t39.5 -98.5t15.5 -126.5q0 -84 -32 -161.5t-88.5 -137t-141.5 -95.5t-185 -36h-438v1330h-340zM517 118h261q86 0 153 26t107 69.5t60.5 97.5t20.5 115q0 60 -15 108.5t-38 80 t-57 55t-66 36t-71.5 20t-67 9t-58.5 1.5h-229v-618z" />
<glyph unicode="&#x42b;" horiz-adv-x="1666" d="M207 0v1448h136v-594h232h40.5t58.5 -4t73.5 -11t78 -22t80 -35.5t71 -53t60.5 -73.5t39.5 -98.5t15.5 -126.5q0 -84 -31.5 -161.5t-88 -137t-142 -95.5t-185.5 -36h-438zM343 118h261q86 0 153.5 26t107.5 69.5t60 97.5t20 115q0 60 -14.5 108.5t-38 80t-57.5 55t-66 36 t-71.5 20t-66.5 9t-58 1.5h-230v-618zM1324 0v1448h136v-1448h-136z" />
<glyph unicode="&#x42c;" horiz-adv-x="1216" d="M207 0v1448h136v-594h232h40.5t58.5 -4t73.5 -11t78 -22t80 -35.5t71 -53t60.5 -73.5t39.5 -98.5t15.5 -126.5q0 -84 -31.5 -161.5t-88 -137t-142 -95.5t-185.5 -36h-438zM343 118h261q86 0 153.5 26t107.5 69.5t60 97.5t20 115q0 60 -14.5 108.5t-38 80t-57.5 55t-66 36 t-71.5 20t-66.5 9t-58 1.5h-230v-618z" />
<glyph unicode="&#x42d;" horiz-adv-x="1308" d="M73 1378q183 86 399 86q166 0 301.5 -52t228.5 -146.5t143.5 -230t50.5 -299.5q0 -134 -33 -250.5t-97 -208.5t-156 -157.5t-214 -100.5t-266 -35q-93 0 -173.5 12t-165.5 45v137q155 -77 337 -77q124 0 227.5 31t176.5 85.5t123 129.5t73 162.5t20 183.5h-771v118h771 q-4 69 -22.5 134.5t-50 125.5t-79 110t-107.5 87t-139 57.5t-170 20.5q-219 0 -393 -99z" />
<glyph unicode="&#x42e;" horiz-adv-x="2011" d="M207 0v1448h136v-639h249q6 84 27 163t57.5 153t91 135.5t123 107t159 71t193.5 25.5q129 0 237.5 -39.5t185 -109t129.5 -164t78.5 -203t25.5 -226.5q0 -175 -50.5 -316t-139.5 -232.5t-208 -140.5t-258 -49q-129 0 -238 40t-184 108t-127.5 159t-77.5 192t-26 208h-247 v-691h-136zM736 722q0 -80 11.5 -151.5t32.5 -129t50.5 -106.5t65.5 -86t77 -65.5t85.5 -46.5t91 -27t93.5 -9q78 0 150.5 22.5t138 71.5t114.5 120.5t77.5 176t28.5 230.5t-28.5 231t-77.5 177t-114.5 121.5t-138 72t-150.5 22.5q-76 0 -148 -22.5t-137.5 -72 t-114.5 -121.5t-78 -177t-29 -231z" />
<glyph unicode="&#x42f;" horiz-adv-x="1220" d="M95 0l351 645q-136 41 -212 145.5t-76 239.5q0 66 16.5 126.5t53 114t88.5 93t127 62t165 22.5h406v-1448h-137v618h-291l-323 -618h-168zM304 1030q0 -72 25 -129.5t66.5 -92.5t93 -53.5t107.5 -18.5h281v594h-281q-134 0 -213 -85t-79 -215z" />
<glyph unicode="&#x430;" horiz-adv-x="1070" d="M93 284q0 56 14 103.5t37 82.5t59 62.5t72 46t84 31.5t88 20t90.5 11.5t85.5 5t78 0.5h69v38q0 23 -1 39.5t-5.5 48.5t-13.5 55t-27 51t-43 46t-65 30.5t-90 12.5q-171 0 -316 -80v123q150 67 316 67q375 0 375 -395v-452l6 -231h-116v180h-4q-107 -196 -346 -196 q-83 0 -150 23.5t-109.5 65t-65 95.5t-22.5 116zM229 292q0 -86 59.5 -142.5t149.5 -56.5q153 0 242.5 98t89.5 271v75h-119q-39 0 -74 -1.5t-73.5 -6.5t-71.5 -13.5t-64.5 -21t-56 -31.5t-43.5 -43t-29 -56.5t-10 -71.5z" />
<glyph unicode="&#x431;" horiz-adv-x="1218" d="M103 784q0 108 11 199.5t30 161.5t49.5 127.5t63.5 98t77 72.5t86 51.5t96 33.5t100 21t104 12q9 1 45 4.5t45 4t38 3.5t43.5 5t40.5 5.5t50 8t52 9.5v-122q-37 -6 -68 -10.5t-68 -8t-53 -5t-66.5 -6t-64.5 -5.5q-44 -3 -69.5 -6t-71.5 -12t-75 -21t-70 -35t-67 -52.5 t-55 -75.5t-46 -102.5t-28 -133.5t-11 -169v-49h6q46 131 152 210.5t243 79.5q68 0 130.5 -15t118.5 -44.5t102.5 -76.5t80.5 -107t52.5 -140.5t18.5 -173.5q0 -111 -30 -203t-79.5 -153t-116 -102.5t-136.5 -60t-143 -18.5q-91 0 -165.5 23.5t-127 64t-93 101t-65 127 t-40 150t-21 163t-5.5 171.5zM261 521q0 -104 29.5 -187.5t80 -135t115.5 -78.5t138 -27t138 27t116 78.5t81 135t30 187.5q0 109 -30 196t-81.5 140.5t-116 82t-137.5 28.5q-48 0 -93 -12.5t-85.5 -36.5t-74.5 -62t-58.5 -86.5t-38 -112.5t-13.5 -137z" />
<glyph unicode="&#x432;" horiz-adv-x="1079" d="M166 0v1062h420q65 0 119.5 -14.5t92.5 -40t64.5 -61t39 -77.5t12.5 -89q0 -149 -146 -217v-4q43 -10 80 -34.5t63 -59t40.5 -78t14.5 -91.5q0 -60 -18 -108.5t-44.5 -79t-65 -52.5t-70 -32.5t-70 -16t-55.5 -6.5t-35 -1h-442zM296 110h302q60 0 105.5 16t72.5 42.5 t40 59t13 68.5q0 41 -14 76t-43 63.5t-79 45t-116 16.5h-281v-387zM296 606h281q9 0 18 0.5t31.5 3.5t41 8.5t41 18t38 29t26.5 43.5t11 61q0 16 -2.5 32.5t-9 35t-16.5 34.5t-26.5 31t-37.5 25.5t-50.5 16.5t-64.5 6h-281v-345z" />
<glyph unicode="&#x433;" horiz-adv-x="816" d="M166 0v1062h649v-111h-519v-951h-130z" />
<glyph unicode="&#x434;" horiz-adv-x="1202" d="M10 110h116q89 130 121 252t32 293v407h708v-952h154v-396h-130v286h-871v-286h-130v396zM275 110h581v841h-446v-298q0 -177 -27 -291t-108 -252z" />
<glyph unicode="&#x435;" horiz-adv-x="1050" d="M83 548q0 123 34.5 223.5t95.5 167t146 103t185 36.5q424 0 424 -545v-41h-749q0 -31 3 -63.5t13 -72.5t26 -76t44 -71t63.5 -60t87.5 -40.5t115 -15.5q182 0 317 69v-121q-136 -57 -319 -57q-229 0 -357.5 147t-128.5 417zM219 602h612q1 23 -0.5 47.5t-7.5 62t-17 70.5 t-33 68t-51 60t-75 41.5t-103 16.5q-62 0 -115.5 -21t-91 -56.5t-64 -83t-40 -99.5t-14.5 -106z" />
<glyph unicode="&#x436;" horiz-adv-x="1532" d="M10 0l547 567l-486 495h158l466 -481h6v481h130v-481h6l466 481h159l-485 -495l545 -567h-186l-499 533h-6v-533h-130v533h-6l-498 -533h-187z" />
<glyph unicode="&#x437;" horiz-adv-x="916" d="M62 54l15 120q143 -81 306 -81q52 0 100.5 11.5t90 34.5t67 63.5t25.5 93.5q0 50 -16 86.5t-41.5 58.5t-65.5 34.5t-80 17t-92 4.5h-104v109h104q40 0 73.5 5t57.5 13t43.5 20.5t31.5 24.5t21 27.5t13 27t6.5 26.5t2.5 22.5v17.5q0 88 -67.5 133t-183.5 45 q-133 0 -259 -60l-5 114q137 56 276 56q63 0 117.5 -11t94.5 -30t70.5 -45.5t49.5 -58.5t28 -67.5t9 -73.5q0 -59 -21 -106.5t-55.5 -76.5t-79.5 -44v-6q28 -7 54.5 -17t55.5 -31t50 -48.5t35 -70.5t14 -96q0 -64 -25 -119t-75 -99t-133 -69t-189 -25q-158 0 -319 70z" />
<glyph unicode="&#x438;" horiz-adv-x="1228" d="M166 0v1062h130v-778l-2 -112h6l71 114l547 776h146v-1062h-131v778l2 112h-6l-71 -112l-548 -778h-144z" />
<glyph unicode="&#x439;" horiz-adv-x="1228" d="M166 0v1062h130v-778l-2 -112h6l71 114l547 776h146v-1062h-131v778l2 112h-6l-71 -112l-548 -778h-144zM312 1467l63 72q98 -118 239 -118q142 0 240 118l62 -72q-57 -76 -136 -119t-166 -43t-166 43t-136 119z" />
<glyph unicode="&#x43a;" horiz-adv-x="1021" d="M166 0v1062h130v-468h6l486 468h167l-521 -495l577 -567h-184l-525 525h-6v-525h-130z" />
<glyph unicode="&#x43b;" horiz-adv-x="1116" d="M14 -4v105q39 -10 71 -10q80 0 112 42q40 54 50 241q5 110 5 396v292h699v-1062h-130v951h-438v-196q0 -354 -15 -477q-24 -189 -105 -252q-55 -42 -147 -42q-59 0 -102 12z" />
<glyph unicode="&#x43c;" horiz-adv-x="1470" d="M166 0v1062h183l340 -785l41 -143h8l61 143l342 785h164v-1062h-130v755l11 172h-7l-58 -172l-331 -755h-111l-323 755l-64 172h-6l10 -172v-755h-130z" />
<glyph unicode="&#x43d;" horiz-adv-x="1166" d="M166 0v1062h130v-456h575v456h130v-1062h-130v497h-575v-497h-130z" />
<glyph unicode="&#x43e;" horiz-adv-x="1166" d="M93 529q0 164 60.5 288.5t172 192.5t258 68t258 -68t172 -192.5t60.5 -288.5q0 -163 -61 -287t-172.5 -191t-257 -67t-257 67t-172.5 191t-61 287zM229 529q0 -63 13 -124t41 -118t68.5 -100t100.5 -68.5t132 -25.5q60 0 112 18t90 49.5t67.5 73.5t47.5 91t27 100.5 t9 103.5q0 64 -12.5 125.5t-40.5 118.5t-68 100t-100 69t-132 26q-61 0 -113 -18t-90 -50t-67.5 -74t-47.5 -91.5t-27.5 -101t-9.5 -104.5z" />
<glyph unicode="&#x43f;" horiz-adv-x="1145" d="M166 0v1062h815v-1062h-131v951h-554v-951h-130z" />
<glyph unicode="&#x440;" horiz-adv-x="1174" d="M166 1062h124v-220h6q12 33 27.5 62.5t43.5 62.5t62 56.5t85 39t110 15.5q218 0 338 -146t120 -401q0 -113 -25.5 -205.5t-68 -155t-101.5 -105.5t-124.5 -62t-138.5 -19q-104 0 -186.5 55.5t-131.5 150.5h-6l4 -101v-542h-130v1309zM304 531q0 -70 11.5 -130t30.5 -104 t45 -79.5t55 -58.5t60.5 -38t60.5 -21.5t57 -6.5q40 0 81.5 12.5t85.5 45t77.5 80.5t55 126t21.5 174t-21.5 173t-55 125t-77.5 80.5t-85.5 45.5t-81.5 13t-81 -13t-85 -45.5t-77.5 -80.5t-55 -125t-21.5 -173z" />
<glyph unicode="&#x441;" horiz-adv-x="951" d="M93 529q0 85 20.5 164.5t64 149.5t105 122t150.5 82.5t194 30.5q127 0 254 -42l-6 -116q-126 48 -246 48q-121 0 -212 -56t-139.5 -155t-48.5 -228q0 -109 33.5 -194.5t92 -137t131.5 -78t157 -26.5q120 0 234 43l13 -111q-108 -41 -247 -41q-169 0 -294.5 69t-190.5 192 t-65 284z" />
<glyph unicode="&#x442;" horiz-adv-x="833" d="M20 951v111h793v-111h-331v-951h-131v951h-331z" />
<glyph unicode="&#x443;" horiz-adv-x="1013" d="M62 1062h139l279 -810l33 -106h2l33 104l269 812h134l-452 -1302q-18 -50 -38.5 -86.5t-50.5 -67t-72 -46.5t-96 -16q-41 0 -116 20l12 116q8 -2 23.5 -5.5t27 -6.5t23.5 -5t17 -2q66 0 104 39.5t66 125.5l45 139z" />
<glyph unicode="&#x444;" horiz-adv-x="1577" d="M93 529q0 94 14.5 172.5t39.5 134t59.5 98.5t72.5 69.5t81.5 44t82.5 24t80 6.5q88 0 197 -85l6 2l-2 453h130l-2 -453l6 -2q68 53 142 74.5t143 11t131.5 -53t109 -110t74 -167.5t27.5 -219t-27.5 -218.5t-74 -166.5t-109 -108.5t-131.5 -52t-143 10.5t-142 73l-6 -3 l2 -517h-130l2 517l-6 3q-106 -83 -197 -83q-40 0 -79 6.5t-82.5 23.5t-81.5 43t-73 69.5t-59.5 98.5t-39.5 133t-15 171zM229 529q0 -82 12.5 -150t32 -112t47 -77.5t54 -51.5t56.5 -28.5t50.5 -13.5t39.5 -3q106 0 203 81v712q-98 82 -203 82q-41 0 -78.5 -11t-77.5 -41 t-69 -77.5t-48 -127t-19 -182.5zM854 174q41 -35 85 -55.5t86 -26.5t83 2.5t76.5 30.5t66 59.5t52 86.5t33.5 115.5t12 142.5q0 102 -21 185t-57 136.5t-85 85.5t-103.5 36t-113 -17.5t-114.5 -68.5v-712z" />
<glyph unicode="&#x445;" horiz-adv-x="1029" d="M62 0l368 567l-343 495h165l201 -310l58 -99h2l58 102l187 307h152l-324 -495l382 -567h-169l-236 383l-52 95h-2l-53 -95l-243 -383h-151z" />
<glyph unicode="&#x446;" horiz-adv-x="1190" d="M166 0v1062h130v-952h550v952h131v-952h162v-396h-130v286h-843z" />
<glyph unicode="&#x447;" horiz-adv-x="1038" d="M83 722v340h130v-320q0 -35 4.5 -59t21 -50.5t45.5 -42.5t82 -27t128 -11q124 0 248 25v485h131v-1062h-131v468q-139 -26 -266 -26q-79 0 -141 9.5t-104.5 28.5t-72 43t-45.5 57t-23 66.5t-7 75.5z" />
<glyph unicode="&#x448;" horiz-adv-x="1640" d="M166 0v1062h130v-952h459v952h131v-952h458v952h131v-1062h-1309z" />
<glyph unicode="&#x449;" horiz-adv-x="1676" d="M166 0v1062h130v-952h459v952h131v-952h458v952h131v-952h151v-396h-130v286h-1330z" />
<glyph unicode="&#x44a;" horiz-adv-x="1214" d="M41 951v111h423v-419h314q157 0 250 -88.5t93 -232.5t-91 -233t-252 -89h-445v951h-292zM464 110h274q30 0 59.5 5t64.5 19t61.5 36.5t44 61.5t17.5 90q0 28 -6 55t-23 56t-43 50.5t-71 35.5t-104 14h-274v-423z" />
<glyph unicode="&#x44b;" horiz-adv-x="1445" d="M166 0v1062h130v-419h275q18 0 33.5 -0.5t45 -3.5t54.5 -9t57.5 -17.5t58 -27t51.5 -40.5t43.5 -55.5t28 -73.5t10.5 -94q0 -57 -12.5 -104.5t-36.5 -79.5t-51.5 -56.5t-63 -39t-64.5 -24t-63.5 -13t-52.5 -4.5t-38 -1h-405zM296 110h265q18 0 32 0.5t43 5t50.5 11.5 t47.5 23t43 37.5t28.5 56.5t11.5 78q0 38 -8 69t-23.5 52t-33.5 37t-41.5 25.5t-42.5 15.5t-42.5 8.5t-36.5 3t-28 0.5h-265v-423zM1150 0v1062h131v-1062h-131z" />
<glyph unicode="&#x44c;" horiz-adv-x="1023" d="M166 0v1062h130v-419h275q18 0 33.5 -0.5t45 -3.5t54.5 -9t57.5 -17.5t58 -27t51.5 -40.5t43.5 -55.5t28 -73.5t10.5 -94q0 -57 -12.5 -104.5t-36.5 -79.5t-51.5 -56.5t-63 -39t-64.5 -24t-63.5 -13t-52.5 -4.5t-38 -1h-405zM296 110h265q18 0 32 0.5t43 5t50.5 11.5 t47.5 23t43 37.5t28.5 56.5t11.5 78q0 38 -8 69t-23.5 52t-33.5 37t-41.5 25.5t-42.5 15.5t-42.5 8.5t-36.5 3t-28 0.5h-265v-423z" />
<glyph unicode="&#x44d;" horiz-adv-x="949" d="M62 33l5 115q120 -55 253 -55q79 0 146 23t112.5 61.5t78 90t48 109t15.5 117.5h-503v110h503q-3 73 -29 137t-73 115.5t-122 81.5t-169 30q-129 0 -256 -60l-7 116q118 54 263 54q110 0 199 -29t150 -79t102 -119.5t59.5 -148.5t18.5 -169q0 -163 -63.5 -286.5 t-188.5 -193t-296 -69.5q-115 0 -246 49z" />
<glyph unicode="&#x44e;" horiz-adv-x="1536" d="M166 0v1062h130v-464h168q7 97 41.5 182.5t94.5 152.5t151 106t202 39q144 0 245 -58q108 -62 177 -188.5t69 -302.5q0 -97 -22.5 -182.5t-65.5 -151.5t-102.5 -113.5t-136 -72.5t-164.5 -25q-95 0 -175.5 28t-136 76t-95.5 113t-59.5 137t-22.5 150h-168v-488h-130z M600 529q0 -44 6.5 -88.5t20.5 -87.5t34 -81.5t49 -71.5t64.5 -56.5t81.5 -37t97.5 -13.5t97.5 13.5t81.5 37t64.5 56.5t49 71.5t34 81.5t20.5 87.5t6.5 88.5q0 64 -12.5 125.5t-40.5 118.5t-68.5 100t-100.5 69t-132 26t-131.5 -26t-100 -69t-68.5 -100t-40.5 -118.5 t-12.5 -125.5z" />
<glyph unicode="&#x44f;" horiz-adv-x="1029" d="M93 0l248 466q-30 8 -58 21t-58 36.5t-51.5 53.5t-35.5 75t-14 98q0 39 9 76t26.5 72t45 64.5t63 52t83.5 35t102 12.5h412v-1062h-131v438h-258l-226 -438h-157zM261 750q0 -38 12.5 -72.5t37.5 -64t69 -47.5t102 -18h252v403h-252q-46 0 -84 -11.5t-63 -31.5t-42 -46 t-24.5 -54t-7.5 -58z" />
<glyph unicode="&#x451;" horiz-adv-x="1050" d="M83 548q0 123 34.5 223.5t95.5 167t146 103t185 36.5q424 0 424 -545v-41h-749q0 -31 3 -63.5t13 -72.5t26 -76t44 -71t63.5 -60t87.5 -40.5t115 -15.5q182 0 317 69v-121q-136 -57 -319 -57q-229 0 -357.5 147t-128.5 417zM219 602h612q1 23 -0.5 47.5t-7.5 62t-17 70.5 t-33 68t-51 60t-75 41.5t-103 16.5q-62 0 -115.5 -21t-91 -56.5t-64 -83t-40 -99.5t-14.5 -106zM227 1366v165h144v-165h-144zM681 1366v165h142v-165h-142z" />
<glyph unicode="&#x452;" horiz-adv-x="1224" d="M41 1268v93h174v216h130v-216h439v-93h-439v-206l-6 -218h2q26 67 74 119.5t112.5 83.5t134.5 31q74 0 134.5 -21t101.5 -54t71 -83t47 -100t27 -112.5t13 -113t3 -108.5q0 -128 -10 -228.5t-35.5 -195.5t-69 -168.5t-110 -137.5t-157.5 -114l-48 106q47 24 85 53.5 t67 59.5t51.5 67.5t38 72.5t26.5 82t17 87.5t9.5 96.5t4.5 102.5t1 112.5q0 38 -0.5 61.5t-3 67t-7.5 73t-15 70t-24.5 68t-37 57.5t-50.5 47.5t-67.5 29.5t-86.5 12q-79 0 -147.5 -52.5t-106.5 -133t-38 -164.5v-618h-130v1268h-174z" />
<glyph unicode="&#x453;" horiz-adv-x="816" d="M166 0v1062h649v-111h-519v-951h-130zM275 1289l185 274h193l-272 -274h-106z" />
<glyph unicode="&#x454;" horiz-adv-x="914" d="M83 529q0 129 39 233.5t108.5 173t162.5 105.5t201 37q138 0 271 -42l-7 -116q-111 48 -258 48q-77 0 -140 -23.5t-104 -60t-70.5 -85.5t-43.5 -96.5t-19 -96.5h462v-109h-464q1 -62 15 -119.5t44 -109.5t73.5 -90.5t107 -61.5t139.5 -23q161 0 261 43l12 -116 q-120 -36 -275 -36q-120 0 -218 42.5t-162.5 116.5t-99.5 173t-35 213z" />
<glyph unicode="&#x455;" horiz-adv-x="866" d="M103 31l9 125q134 -63 275 -63q110 0 175 51t65 142q0 27 -5.5 49.5t-13 39.5t-24.5 33.5t-30 26.5t-40.5 24.5t-44.5 22t-52 22.5q-17 7 -26 11q-35 16 -58.5 27t-55 28.5t-52 33.5t-42.5 39.5t-35 48.5t-21.5 57.5t-8.5 69.5q0 120 99 189.5t257 69.5q133 0 252 -56 l-8 -104q-117 50 -250 50q-42 0 -78 -7t-70 -22.5t-54 -46t-20 -73.5q0 -28 5 -49t20 -40.5t32 -33.5t52.5 -32.5t69.5 -34t94 -39.5q37 -16 65 -31t64 -42t59.5 -57.5t40 -75.5t16.5 -98q0 -45 -13 -87t-42 -81.5t-72 -69t-108.5 -47t-145.5 -17.5q-147 0 -280 47z" />
<glyph unicode="&#x456;" horiz-adv-x="472" d="M166 1366v165h142v-165h-142zM172 0v1062h130v-1062h-130z" />
<glyph unicode="&#x457;" horiz-adv-x="499" d="M10 1366v165h136v-165h-136zM186 0v1062h130v-1062h-130zM356 1366v165h136v-165h-136z" />
<glyph unicode="&#x458;" horiz-adv-x="460" d="M-62 -329q40 -12 99 -12q16 0 29 2t29 7.5t27.5 18t22 31t16 48.5t5.5 68v1228h130v-1216q0 -28 -1.5 -51t-7 -55t-15 -57t-27 -51t-42 -43t-61.5 -28t-82 -11q-66 0 -122 16v105zM166 1370v165h130v-165h-130z" />
<glyph unicode="&#x459;" horiz-adv-x="1691" d="M14 -8v109q31 -8 67 -8q96 0 138 110q19 49 24 156t5 411v292h703v-419h315q156 0 249.5 -88.5t93.5 -232.5t-91 -233t-252 -89h-445v951h-442v-196v-43q0 -298 -7.5 -408t-40.5 -176q-71 -144 -240 -144q-43 0 -77 8zM951 110h275q30 0 59.5 5t64.5 19t61 36.5t44 61.5 t18 90q0 28 -6 55t-23 56t-43 50.5t-71.5 35.5t-103.5 14h-275v-423z" />
<glyph unicode="&#x45a;" horiz-adv-x="1741" d="M166 0v1062h130v-419h575v419h130v-419h315q157 0 249.5 -88.5t92.5 -232.5t-90.5 -233t-251.5 -89h-445v533h-575v-533h-130zM1001 110h276q29 0 58.5 5t64.5 19t61 36.5t43.5 61.5t17.5 90q0 28 -5.5 55t-22.5 56t-43 50.5t-71 35.5t-103 14h-276v-423z" />
<glyph unicode="&#x45b;" horiz-adv-x="1216" d="M41 1279v93h176v205h130v-205h468v-93h-468v-217l-8 -218h2q43 108 134.5 171t203.5 63q371 0 371 -429v-649h-130v653v7v29t-2.5 37.5t-6.5 44.5t-12.5 45.5t-20.5 46t-31.5 40.5t-44 34t-59 22t-74.5 9q-73 0 -134 -30t-100.5 -79.5t-62 -111.5t-25.5 -129v-618h-130 v1279h-176z" />
<glyph unicode="&#x45c;" horiz-adv-x="1021" d="M166 0v1062h130v-468h6l486 468h167l-521 -495l577 -567h-184l-525 525h-6v-525h-130zM320 1289l185 274h194l-273 -274h-106z" />
<glyph unicode="&#x45e;" horiz-adv-x="1013" d="M62 1062h139l279 -810l33 -106h2l33 104l269 812h134l-452 -1302q-18 -50 -38.5 -86.5t-50.5 -67t-72 -46.5t-96 -16q-41 0 -116 20l12 116q8 -2 23.5 -5.5t27 -6.5t23.5 -5t17 -2q66 0 104 39.5t66 125.5l45 139zM205 1467l62 72q98 -118 240 -118q141 0 239 118l63 -72 q-57 -76 -136 -119t-166 -43t-166 43t-136 119z" />
<glyph unicode="&#x45f;" horiz-adv-x="1147" d="M166 0v1062h130v-952h556v952h131v-1062h-344v-306h-130v306h-343z" />
<glyph unicode="&#x490;" horiz-adv-x="969" d="M207 0v1448h606v310h136v-428h-606v-1330h-136z" />
<glyph unicode="&#x491;" horiz-adv-x="808" d="M166 0v1062h505v206h117v-317h-492v-951h-130z" />
<glyph unicode="&#x2000;" horiz-adv-x="904" />
<glyph unicode="&#x2001;" horiz-adv-x="1808" />
<glyph unicode="&#x2002;" horiz-adv-x="904" />
<glyph unicode="&#x2003;" horiz-adv-x="1808" />
<glyph unicode="&#x2004;" horiz-adv-x="602" />
<glyph unicode="&#x2005;" horiz-adv-x="452" />
<glyph unicode="&#x2006;" horiz-adv-x="301" />
<glyph unicode="&#x2007;" horiz-adv-x="301" />
<glyph unicode="&#x2008;" horiz-adv-x="226" />
<glyph unicode="&#x2009;" horiz-adv-x="361" />
<glyph unicode="&#x200a;" horiz-adv-x="100" />
<glyph unicode="&#x2010;" horiz-adv-x="868" d="M207 497v109h455v-109h-455z" />
<glyph unicode="&#x2011;" horiz-adv-x="868" d="M207 497v109h455v-109h-455z" />
<glyph unicode="&#x2012;" horiz-adv-x="868" d="M207 497v109h455v-109h-455z" />
<glyph unicode="&#x2013;" horiz-adv-x="1323" d="M144 606v116h1035v-116h-1035z" />
<glyph unicode="&#x2014;" horiz-adv-x="1563" d="M144 606v116h1275v-116h-1275z" />
<glyph unicode="&#x2018;" horiz-adv-x="626" d="M166 997l152 451h144l-115 -451h-181z" />
<glyph unicode="&#x2019;" horiz-adv-x="501" d="M103 997l114 451h182l-153 -451h-143z" />
<glyph unicode="&#x201a;" horiz-adv-x="647" d="M176 -267l114 451h182l-154 -451h-142z" />
<glyph unicode="&#x201c;" horiz-adv-x="859" d="M103 997l154 451h142l-113 -451h-183zM462 997l152 451h144l-115 -451h-181z" />
<glyph unicode="&#x201d;" horiz-adv-x="859" d="M103 997l114 451h182l-153 -451h-143zM462 997l113 451h183l-154 -451h-142z" />
<glyph unicode="&#x201e;" horiz-adv-x="859" d="M103 -267l114 451h182l-153 -451h-143zM462 -267l113 451h183l-154 -451h-142z" />
<glyph unicode="&#x2020;" horiz-adv-x="1344" d="M103 748v138h501v562h136v-562h501v-138h-501v-1201h-136v1201h-501z" />
<glyph unicode="&#x2021;" horiz-adv-x="1344" d="M103 110v136h501v502h-501v138h501v562h136v-562h501v-138h-501v-502h501v-136h-501v-563h-136v563h-501z" />
<glyph unicode="&#x2022;" horiz-adv-x="785" d="M144 738.5q0 102.5 73.5 175.5t175.5 73t175 -73t73 -175.5t-73 -175.5t-175 -73t-175.5 73t-73.5 175.5z" />
<glyph unicode="&#x2026;" horiz-adv-x="1129" d="M103 0v178h170v-178h-170zM480 0v178h169v-178h-169zM856 0v178h170v-178h-170z" />
<glyph unicode="&#x202f;" horiz-adv-x="361" />
<glyph unicode="&#x2030;" horiz-adv-x="2889" d="M207 1073.5q0 172.5 96 279.5t247.5 107t247.5 -107t96 -279.5t-96 -279.5t-247.5 -107t-247.5 107t-96 279.5zM337 1074q0 -76 17 -132.5t47 -88.5t67 -47.5t82.5 -15.5t82.5 15.5t67 47.5t47 88.5t17 132.5q0 61 -11.5 109.5t-30.5 80.5t-46.5 53t-58.5 30t-67 9 q-29 0 -55.5 -6.5t-51 -20t-43.5 -36t-33 -53.5t-22 -73t-8 -93zM468 56l1013 1404l82 -68l-1013 -1404zM1144 374.5q0 172.5 96 280t247.5 107.5t247 -107.5t95.5 -280t-95.5 -279.5t-247 -107t-247.5 107t-96 279.5zM1275 375q0 -76 16.5 -132.5t46.5 -88.5t67 -47.5 t82.5 -15.5t82.5 15.5t67 47.5t46.5 88.5t16.5 132.5t-16.5 132t-46.5 88t-67 47.5t-82.5 15.5t-82.5 -15.5t-67 -47.5t-46.5 -88t-16.5 -132zM1996 374.5q0 172.5 96 280t247.5 107.5t247.5 -107.5t96 -280t-96 -279.5t-247.5 -107t-247.5 107t-96 279.5zM2126 375 q0 -61 11 -109.5t30.5 -81t46.5 -54t58 -30.5t67 -9q45 0 82.5 15.5t67.5 47.5t46.5 88.5t16.5 132.5t-16.5 132t-46.5 88t-67 47.5t-82.5 15.5t-83 -15.5t-67.5 -47.5t-46.5 -88t-16.5 -132z" />
<glyph unicode="&#x2039;" horiz-adv-x="687" d="M116 633l289 429h118l-271 -429l271 -428h-118z" />
<glyph unicode="&#x203a;" horiz-adv-x="687" d="M166 205l270 428l-270 429h118l289 -429l-289 -428h-118z" />
<glyph unicode="&#x205f;" horiz-adv-x="452" />
<glyph unicode="&#x2122;" horiz-adv-x="2080" d="M207 1356v92h604v-92h-252v-777h-99v777h-253zM933 579v869h161l290 -693l25 -104h2l24 104l290 693h149v-869h-99v672l10 119h-4l-44 -117l-289 -674h-89l-287 680l-40 111h-4l4 -119v-672h-99z" />
<glyph unicode="&#xe000;" horiz-adv-x="1064" d="M0 0v1066h1066v-1066h-1066z" />
</font>
</defs>
</svg>
